<svg id="svg" version="1.1" xmlns="http://www.w3.org/2000/svg" xmlns:xlink="http://www.w3.org/1999/xlink" width="400" height="400" viewBox="0, 0, 400,400"><g id="svgg"><path id="path0" d="M309.200 64.731 C 309.200 64.913,308.634 64.978,307.943 64.877 C 307.174 64.764,306.781 64.846,306.931 65.088 C 307.079 65.328,306.762 65.405,306.128 65.284 C 305.456 65.156,305.174 65.235,305.341 65.505 C 305.503 65.767,305.299 65.847,304.801 65.716 C 304.360 65.601,304.000 65.702,304.000 65.941 C 304.000 66.180,303.730 66.271,303.400 66.145 C 303.070 66.018,302.800 66.108,302.800 66.345 C 302.800 66.582,302.501 66.660,302.134 66.519 C 301.720 66.360,301.567 66.423,301.730 66.687 C 301.874 66.919,301.768 67.102,301.496 67.092 C 300.212 67.046,299.574 67.235,299.797 67.595 C 299.942 67.830,299.763 67.884,299.355 67.727 C 298.853 67.535,298.756 67.606,298.996 67.994 C 299.207 68.335,299.168 68.428,298.888 68.254 C 298.322 67.905,295.138 69.176,295.423 69.638 C 295.543 69.832,295.333 69.872,294.955 69.727 C 294.453 69.535,294.356 69.606,294.596 69.994 C 294.804 70.330,294.768 70.428,294.498 70.261 C 293.717 69.778,286.435 73.501,287.018 74.085 C 287.148 74.214,286.926 74.293,286.527 74.260 C 286.127 74.227,285.838 74.404,285.884 74.653 C 285.931 74.902,285.661 75.082,285.284 75.053 C 284.908 75.024,284.645 75.225,284.700 75.500 C 284.755 75.775,284.665 75.979,284.500 75.953 C 283.736 75.832,283.173 76.033,283.372 76.355 C 283.493 76.550,283.278 76.685,282.896 76.655 C 282.511 76.625,282.249 76.837,282.310 77.130 C 282.370 77.421,282.236 77.546,282.011 77.407 C 281.462 77.068,279.925 78.174,280.303 78.636 C 280.466 78.836,280.441 78.871,280.247 78.714 C 279.738 78.301,278.326 79.157,278.651 79.682 C 278.801 79.925,278.743 80.012,278.521 79.875 C 278.299 79.738,277.776 79.903,277.359 80.242 C 276.942 80.582,276.853 80.728,277.162 80.568 C 277.544 80.370,277.627 80.433,277.422 80.765 C 277.256 81.033,277.024 81.158,276.907 81.041 C 276.509 80.643,275.174 81.634,275.453 82.120 C 275.604 82.384,275.586 82.471,275.412 82.314 C 274.943 81.891,273.532 82.766,273.851 83.282 C 274.001 83.525,273.956 83.620,273.751 83.493 C 273.545 83.366,272.933 83.624,272.389 84.066 C 271.845 84.508,271.670 84.735,272.000 84.571 C 272.353 84.395,272.463 84.422,272.267 84.636 C 272.083 84.836,271.813 85.006,271.667 85.014 C 271.113 85.044,269.612 86.036,269.704 86.312 C 269.757 86.470,269.620 86.663,269.400 86.739 C 268.211 87.154,267.608 87.693,267.853 88.120 C 268.004 88.384,267.986 88.471,267.812 88.314 C 267.325 87.875,265.938 88.771,266.253 89.320 C 266.404 89.584,266.386 89.671,266.212 89.514 C 265.818 89.159,264.200 90.250,264.200 90.870 C 264.200 91.119,263.854 91.375,263.431 91.437 C 263.008 91.499,261.928 92.320,261.031 93.262 C 259.987 94.358,259.832 94.619,260.600 93.987 L 261.800 93.000 260.842 94.088 C 260.315 94.686,259.751 95.093,259.588 94.992 C 259.425 94.892,258.506 95.548,257.546 96.450 C 256.586 97.353,256.144 97.846,256.564 97.546 C 257.283 97.033,257.296 97.053,256.781 97.880 C 256.372 98.537,256.102 98.651,255.716 98.331 C 255.432 98.095,255.200 98.039,255.200 98.207 C 255.200 98.375,255.448 98.712,255.752 98.956 C 256.055 99.200,256.407 100.223,256.534 101.229 L 256.765 103.057 251.349 108.421 C 248.370 111.372,244.462 115.577,242.666 117.766 C 240.870 119.955,238.256 123.018,236.858 124.573 C 233.775 128.002,228.396 134.855,226.006 138.400 C 225.041 139.830,223.317 142.170,222.173 143.600 C 219.528 146.908,210.671 159.896,209.547 162.116 C 209.078 163.042,207.211 166.410,205.398 169.600 C 201.351 176.721,199.461 180.485,197.036 186.255 C 193.797 193.959,192.979 193.933,188.235 185.971 C 185.377 181.175,176.437 167.464,172.438 161.744 C 157.907 140.962,144.679 131.717,137.097 137.045 C 130.928 141.381,132.193 151.764,140.477 164.791 C 145.143 172.129,146.126 173.616,151.990 182.200 C 155.146 186.820,159.703 193.750,162.117 197.600 C 164.531 201.450,167.631 206.220,169.006 208.200 C 170.381 210.180,172.852 214.155,174.496 217.033 C 176.140 219.911,178.288 223.511,179.270 225.033 C 180.251 226.555,182.191 229.707,183.580 232.038 C 189.093 241.290,191.699 243.200,198.811 243.200 C 207.056 243.200,209.495 241.445,212.589 233.287 C 214.976 226.994,218.355 219.681,224.087 208.400 C 228.584 199.550,230.681 195.941,236.638 186.800 C 238.287 184.270,240.375 180.940,241.279 179.400 C 243.006 176.456,247.801 169.686,253.565 162.051 C 255.454 159.549,258.080 156.020,259.400 154.208 C 262.471 149.992,265.799 145.886,269.617 141.600 C 271.283 139.730,273.618 136.940,274.805 135.400 C 277.286 132.184,280.524 128.414,284.758 123.814 C 286.385 122.046,289.445 118.530,291.558 116.000 C 293.671 113.470,297.256 109.478,299.524 107.129 L 303.648 102.859 306.324 102.546 C 307.796 102.373,309.288 102.245,309.639 102.259 C 309.991 102.274,310.515 101.906,310.804 101.443 C 311.298 100.648,311.285 100.634,310.564 101.200 C 309.856 101.756,309.840 101.748,310.357 101.090 C 310.663 100.700,311.007 100.474,311.121 100.587 C 311.418 100.884,318.362 93.927,318.274 93.421 C 318.233 93.190,318.413 93.041,318.673 93.091 C 319.289 93.210,321.668 90.210,321.289 89.792 C 321.130 89.616,321.216 89.596,321.480 89.747 C 322.029 90.062,322.925 88.675,322.486 88.188 C 322.329 88.014,322.425 88.001,322.700 88.159 C 323.157 88.422,323.390 87.949,323.237 87.070 C 323.206 86.889,323.342 86.840,323.539 86.962 C 324.033 87.267,326.516 82.511,326.162 81.938 C 325.995 81.669,326.051 81.584,326.296 81.736 C 327.678 82.590,327.573 74.030,326.185 72.642 C 325.884 72.341,325.750 71.984,325.886 71.848 C 326.022 71.711,325.913 71.600,325.643 71.600 C 325.373 71.600,325.248 71.445,325.365 71.256 C 325.995 70.238,320.534 65.309,319.300 65.783 C 318.966 65.911,318.867 65.815,319.042 65.532 C 319.234 65.221,319.049 65.146,318.462 65.300 C 317.915 65.443,317.694 65.372,317.859 65.105 C 318.026 64.834,317.741 64.756,317.059 64.887 C 316.477 64.998,316.000 64.934,316.000 64.745 C 316.000 64.555,314.470 64.400,312.600 64.400 C 310.730 64.400,309.200 64.549,309.200 64.731 M172.707 98.690 C 173.426 98.779,174.506 98.777,175.107 98.686 C 175.708 98.595,175.120 98.522,173.800 98.524 C 172.480 98.526,171.988 98.601,172.707 98.690 M186.728 98.700 C 192.518 98.762,201.878 98.762,207.528 98.700 C 213.178 98.637,208.440 98.586,197.000 98.586 C 185.560 98.586,180.938 98.637,186.728 98.700 M321.293 231.200 C 321.293 231.970,321.375 232.285,321.476 231.900 C 321.576 231.515,321.576 230.885,321.476 230.500 C 321.375 230.115,321.293 230.430,321.293 231.200 M322.928 252.000 C 322.928 253.430,323.001 254.015,323.089 253.300 C 323.178 252.585,323.178 251.415,323.089 250.700 C 323.001 249.985,322.928 250.570,322.928 252.000 M344.600 275.200 C 345.459 276.080,346.252 276.800,346.362 276.800 C 346.472 276.800,345.859 276.080,345.000 275.200 C 344.141 274.320,343.348 273.600,343.238 273.600 C 343.128 273.600,343.741 274.320,344.600 275.200 " stroke="none" fill="#4adadd" fill-rule="evenodd"></path><path id="path1" d="M94.492 98.290 C 93.679 98.391,93.287 98.616,93.454 98.888 C 93.620 99.156,93.537 99.208,93.239 99.024 C 92.594 98.625,90.703 99.119,91.004 99.607 C 91.141 99.829,90.951 99.880,90.555 99.727 C 90.093 99.550,89.962 99.615,90.155 99.927 C 90.341 100.228,90.228 100.309,89.836 100.158 C 89.071 99.865,84.687 103.928,84.971 104.667 C 85.081 104.955,84.967 105.148,84.717 105.095 C 84.013 104.948,82.702 108.801,82.943 110.309 C 83.086 111.201,83.013 111.531,82.713 111.346 C 82.404 111.156,82.342 111.718,82.505 113.237 C 82.661 114.699,82.617 115.141,82.369 114.600 C 82.131 114.081,82.042 115.648,82.115 119.070 C 82.182 122.196,82.078 124.248,81.861 124.114 C 81.644 123.980,81.590 124.853,81.728 126.244 C 81.894 127.915,81.854 128.310,81.592 127.600 C 81.343 126.928,81.263 128.371,81.349 131.994 C 81.423 135.148,81.336 137.058,81.140 136.594 C 80.943 136.130,80.873 137.713,80.970 140.400 C 81.072 143.226,81.017 144.383,80.825 143.400 C 80.598 142.232,80.498 143.118,80.457 146.676 C 80.425 149.414,80.568 151.656,80.783 151.789 C 80.993 151.919,81.064 152.289,80.941 152.611 C 80.817 152.932,80.529 153.080,80.301 152.939 C 80.020 152.765,79.959 153.643,80.112 155.641 C 80.266 157.641,80.226 158.211,79.989 157.400 C 79.764 156.629,79.678 158.589,79.748 162.879 C 79.817 167.117,79.714 169.471,79.468 169.319 C 79.225 169.168,79.162 170.089,79.299 171.796 C 79.444 173.606,79.388 174.327,79.129 173.956 C 78.875 173.591,78.804 175.303,78.922 178.944 C 79.038 182.508,78.966 184.294,78.722 183.944 C 78.476 183.591,78.411 184.592,78.537 186.800 C 78.670 189.131,78.624 189.760,78.391 188.800 C 78.174 187.906,78.087 189.893,78.151 194.304 C 78.207 198.101,78.108 200.981,77.932 200.704 C 77.753 200.422,77.639 201.172,77.673 202.400 C 77.721 204.101,77.770 204.259,77.891 203.100 C 77.978 202.275,78.189 201.600,78.361 201.600 C 78.533 201.600,78.532 202.455,78.360 203.500 C 78.188 204.545,78.024 205.670,77.996 206.000 C 77.960 206.415,77.838 206.354,77.600 205.800 C 77.380 205.288,77.260 206.514,77.268 209.200 C 77.276 211.884,77.395 213.039,77.600 212.400 C 77.907 211.442,77.922 211.453,77.960 212.667 C 78.009 214.214,77.641 215.272,77.158 214.974 C 76.961 214.852,76.829 215.708,76.864 216.876 C 76.912 218.480,76.968 218.657,77.093 217.600 C 77.183 216.830,77.397 216.056,77.568 215.880 C 77.902 215.537,77.782 217.875,77.315 220.800 L 77.028 222.600 76.774 220.800 C 76.629 219.770,76.515 221.480,76.507 224.800 C 76.500 227.990,76.615 230.060,76.763 229.400 C 77.020 228.248,77.041 228.237,77.288 229.140 C 77.573 230.179,76.881 232.097,76.342 231.764 C 76.154 231.648,76.027 232.328,76.060 233.276 C 76.101 234.468,76.171 234.660,76.287 233.900 C 76.461 232.749,76.953 232.477,77.438 233.262 C 77.626 233.566,77.547 233.614,77.203 233.402 C 76.807 233.157,76.745 233.327,76.943 234.116 C 77.086 234.685,77.022 235.263,76.801 235.399 C 76.581 235.536,76.369 236.762,76.331 238.124 L 76.262 240.600 76.000 238.000 C 75.791 235.927,75.732 236.455,75.709 240.600 C 75.693 243.460,75.810 245.350,75.969 244.800 L 76.259 243.800 76.555 244.696 C 76.860 245.619,75.972 247.439,75.464 246.931 C 75.319 246.786,75.229 247.552,75.264 248.633 C 75.313 250.131,75.367 250.284,75.491 249.276 C 75.650 247.985,76.366 247.699,76.727 248.781 C 76.843 249.129,76.727 249.202,76.389 248.993 C 76.011 248.760,75.933 248.901,76.096 249.524 C 76.258 250.144,76.095 250.443,75.490 250.635 C 74.665 250.897,74.666 250.900,75.543 251.370 C 76.028 251.629,76.287 251.980,76.118 252.149 C 75.949 252.318,75.808 252.750,75.805 253.109 C 75.802 253.468,75.350 253.887,74.800 254.041 C 74.250 254.195,74.025 254.338,74.300 254.360 C 74.575 254.382,74.800 254.670,74.800 255.000 C 74.800 255.553,74.307 255.786,73.458 255.633 C 73.270 255.600,72.893 255.757,72.621 255.982 C 72.349 256.208,71.979 256.260,71.799 256.097 C 71.619 255.933,71.606 256.033,71.770 256.318 C 72.145 256.967,71.316 258.008,70.451 257.975 C 70.010 257.957,70.091 257.832,70.700 257.588 C 71.777 257.155,71.864 256.904,70.900 257.011 C 69.675 257.147,68.796 257.670,69.064 258.104 C 69.207 258.335,69.144 258.413,68.925 258.278 C 68.706 258.142,68.139 258.557,67.664 259.200 C 66.690 260.517,66.562 260.990,67.300 260.547 C 67.644 260.340,67.630 260.456,67.255 260.919 C 66.955 261.289,66.550 261.493,66.355 261.372 C 65.711 260.974,65.120 261.622,65.600 262.200 C 65.921 262.587,65.910 262.809,65.558 263.026 C 65.253 263.215,65.181 263.155,65.362 262.862 C 65.531 262.588,65.393 262.400,65.024 262.400 C 64.681 262.400,64.445 262.603,64.500 262.850 C 64.555 263.098,64.330 263.381,64.000 263.480 C 63.516 263.626,63.505 263.587,63.943 263.280 C 64.278 263.045,64.332 262.805,64.085 262.652 C 63.580 262.340,63.149 263.401,63.455 264.200 C 63.582 264.530,63.467 264.800,63.200 264.800 C 62.925 264.800,62.818 265.070,62.953 265.421 C 63.089 265.777,63.022 265.937,62.795 265.797 C 62.578 265.663,62.400 265.271,62.400 264.927 C 62.400 264.417,62.290 264.393,61.800 264.800 C 61.075 265.402,60.999 266.149,61.700 265.794 C 61.975 265.655,61.888 265.797,61.506 266.110 C 61.125 266.423,60.945 266.811,61.106 266.973 C 61.268 267.134,61.220 267.230,61.000 267.186 C 60.155 267.015,59.563 267.217,59.797 267.595 C 59.932 267.813,59.797 267.897,59.498 267.782 C 59.200 267.668,58.469 268.120,57.875 268.787 C 57.280 269.454,56.615 270.000,56.397 270.000 C 56.179 270.000,56.000 270.270,56.000 270.600 C 56.000 270.930,55.711 271.200,55.357 271.200 C 54.950 271.200,54.799 271.420,54.945 271.800 C 55.101 272.208,54.923 272.400,54.387 272.400 C 53.954 272.400,53.600 272.591,53.600 272.824 C 53.600 273.057,53.750 273.155,53.933 273.041 C 54.684 272.577,54.199 274.050,53.333 274.863 C 52.801 275.363,52.400 275.528,52.400 275.246 C 52.400 274.975,52.236 274.854,52.036 274.978 C 51.835 275.102,51.731 275.517,51.805 275.902 C 51.879 276.286,51.953 276.754,51.969 276.942 C 51.986 277.131,52.548 276.698,53.218 275.981 C 53.994 275.150,54.575 274.815,54.819 275.059 C 55.063 275.303,54.109 276.510,52.193 278.380 C 50.539 279.996,49.090 281.223,48.973 281.107 C 48.857 280.990,49.040 280.617,49.381 280.276 C 49.721 279.936,50.000 279.538,50.000 279.393 C 50.000 279.247,50.323 278.829,50.719 278.464 C 51.114 278.099,51.204 277.957,50.919 278.149 C 50.595 278.367,50.400 278.330,50.400 278.049 C 50.400 277.802,50.124 277.600,49.786 277.600 C 49.287 277.600,49.253 277.432,49.608 276.700 C 50.015 275.860,50.004 275.849,49.450 276.539 C 49.123 276.945,48.945 277.512,49.055 277.798 C 49.165 278.085,49.062 278.438,48.827 278.583 C 48.592 278.728,48.400 278.657,48.400 278.424 C 48.400 278.191,48.208 278.000,47.973 278.000 C 47.726 278.000,47.655 278.342,47.803 278.810 C 47.945 279.256,47.912 279.580,47.730 279.531 C 46.870 279.298,43.519 281.109,43.579 281.774 C 43.591 281.898,43.519 281.955,43.419 281.900 C 43.114 281.731,40.022 284.912,40.204 285.207 C 40.431 285.574,38.412 287.457,38.068 287.200 C 37.920 287.090,37.465 287.686,37.055 288.525 C 36.645 289.364,36.094 289.968,35.830 289.867 C 35.504 289.742,35.405 290.053,35.521 290.841 C 35.627 291.563,35.512 292.000,35.217 292.000 C 34.507 292.000,33.601 293.045,33.594 293.871 C 33.589 294.488,33.528 294.508,33.200 294.000 C 32.967 293.639,32.810 293.590,32.806 293.876 C 32.792 295.014,33.764 294.760,35.258 293.236 C 36.143 292.333,37.050 291.707,37.273 291.845 C 37.497 291.983,36.766 293.020,35.639 294.160 C 32.996 296.837,32.907 296.661,38.121 299.099 L 42.611 301.198 51.006 301.781 C 55.622 302.102,65.250 302.648,72.400 302.993 C 79.550 303.338,88.190 303.794,91.600 304.005 C 100.827 304.578,125.247 305.300,129.955 305.140 C 135.240 304.960,135.358 304.836,135.039 299.800 C 134.913 297.820,134.705 293.140,134.577 289.400 C 134.311 281.656,134.084 280.732,132.282 280.092 C 130.255 279.372,120.426 278.469,107.369 277.804 C 99.691 277.412,94.554 276.973,93.169 276.589 C 91.976 276.258,89.831 275.804,88.402 275.581 C 84.606 274.989,84.308 274.500,86.290 272.126 C 87.174 271.067,88.019 269.641,88.168 268.959 C 88.532 267.285,91.515 264.022,97.853 258.367 C 104.939 252.044,104.158 252.357,113.351 252.177 C 126.547 251.920,129.070 251.531,128.640 249.819 C 128.507 249.285,128.578 248.737,128.799 248.601 C 129.333 248.270,129.313 246.517,128.770 246.181 C 128.493 246.010,128.620 245.654,129.128 245.181 C 129.657 244.688,130.008 243.651,130.197 242.024 C 130.352 240.691,130.621 239.600,130.796 239.600 C 130.970 239.600,131.237 239.105,131.388 238.500 C 131.539 237.895,132.089 236.840,132.610 236.155 C 133.131 235.470,133.677 234.433,133.823 233.851 C 133.969 233.269,134.249 232.694,134.444 232.573 C 134.640 232.452,134.800 231.756,134.800 231.027 C 134.800 229.619,135.844 227.584,138.407 224.000 C 139.272 222.790,139.985 221.530,139.992 221.200 C 139.999 220.870,140.274 220.084,140.602 219.454 C 140.931 218.824,141.200 218.059,141.200 217.754 C 141.200 217.449,141.377 217.200,141.592 217.200 C 141.808 217.200,142.093 216.705,142.225 216.100 C 142.633 214.232,143.250 212.866,143.779 212.663 C 144.431 212.413,146.797 208.229,146.809 207.306 C 146.814 206.918,147.170 206.150,147.600 205.600 C 148.030 205.050,148.386 204.307,148.391 203.948 C 148.396 203.590,149.030 202.251,149.800 200.972 C 150.570 199.693,151.200 198.321,151.200 197.924 C 151.200 197.468,151.495 197.200,151.995 197.200 C 152.531 197.200,152.988 196.725,153.400 195.739 C 153.736 194.935,154.117 194.384,154.248 194.514 C 154.788 195.055,156.127 193.177,156.105 191.911 C 156.043 188.443,155.624 187.565,150.304 179.759 C 147.827 176.124,145.096 172.036,144.236 170.675 C 143.376 169.314,141.576 166.488,140.236 164.397 C 130.384 149.015,131.019 136.361,141.675 135.702 C 148.392 135.286,154.366 139.416,163.780 150.980 C 166.475 154.291,169.529 157.990,170.568 159.200 C 171.606 160.410,173.355 162.885,174.455 164.700 C 176.993 168.890,177.225 168.890,175.174 164.700 C 173.561 161.403,173.387 161.070,171.969 158.545 C 171.554 157.805,171.305 157.200,171.416 157.200 C 171.527 157.200,171.340 156.774,170.999 156.254 C 170.658 155.734,170.383 154.789,170.388 154.154 C 170.393 153.519,170.343 152.460,170.276 151.800 C 170.209 151.140,170.321 150.376,170.525 150.102 C 170.728 149.828,170.800 149.243,170.685 148.802 C 170.569 148.361,170.638 148.000,170.837 148.000 C 171.037 148.000,171.200 147.561,171.200 147.024 C 171.200 146.487,171.387 145.931,171.616 145.790 C 171.845 145.648,171.922 145.184,171.787 144.759 C 171.626 144.250,171.894 143.566,172.571 142.762 C 173.137 142.089,173.600 141.116,173.600 140.600 C 173.600 140.084,174.050 139.127,174.600 138.473 C 175.150 137.819,175.600 136.997,175.600 136.646 C 175.600 136.294,176.230 135.182,177.000 134.173 C 177.770 133.164,178.400 131.938,178.400 131.448 C 178.400 130.630,180.581 127.177,181.294 126.867 C 181.462 126.793,181.600 126.478,181.600 126.167 C 181.600 125.855,181.780 125.600,182.000 125.600 C 182.220 125.600,182.400 125.145,182.400 124.588 C 182.400 124.012,183.089 122.705,184.000 121.552 C 184.880 120.439,185.600 119.172,185.600 118.738 C 185.600 117.740,186.241 116.483,187.404 115.200 C 187.902 114.650,188.445 113.750,188.610 113.200 C 188.775 112.650,189.245 111.771,189.655 111.246 C 190.065 110.721,190.400 109.878,190.400 109.372 C 190.400 108.866,190.576 107.990,190.790 107.426 C 191.053 106.735,191.045 106.400,190.766 106.400 C 190.539 106.400,190.455 106.235,190.579 106.034 C 190.703 105.833,190.579 105.577,190.302 105.466 C 189.995 105.342,190.066 105.251,190.487 105.232 C 191.676 105.177,190.858 104.188,188.987 103.416 C 187.350 102.741,186.624 102.000,187.600 102.000 C 187.820 102.000,188.000 101.730,188.000 101.400 C 188.000 100.909,187.218 100.785,183.700 100.715 C 179.901 100.640,180.169 100.603,186.000 100.400 L 192.600 100.170 186.200 100.034 C 169.379 99.677,172.220 99.327,193.200 99.172 L 215.400 99.008 195.800 98.806 L 176.200 98.604 204.200 98.398 C 221.348 98.272,205.768 98.179,164.000 98.160 C 126.490 98.142,95.212 98.201,94.492 98.290 M149.700 98.700 C 139.745 98.759,123.455 98.759,113.500 98.700 C 103.545 98.640,111.690 98.592,131.600 98.592 C 151.510 98.592,159.655 98.640,149.700 98.700 M175.107 98.686 C 174.506 98.777,173.426 98.779,172.707 98.690 C 171.988 98.601,172.480 98.526,173.800 98.524 C 175.120 98.522,175.708 98.595,175.107 98.686 M166.900 99.482 C 166.405 99.578,165.595 99.578,165.100 99.482 C 164.605 99.387,165.010 99.309,166.000 99.309 C 166.990 99.309,167.395 99.387,166.900 99.482 M79.298 185.800 C 79.193 186.350,79.038 186.800,78.953 186.800 C 78.869 186.800,78.800 186.350,78.800 185.800 C 78.800 185.250,78.955 184.800,79.145 184.800 C 79.334 184.800,79.403 185.250,79.298 185.800 M68.101 257.271 C 61.577 263.142,52.775 271.427,42.025 281.815 C 38.601 285.123,34.643 288.813,33.229 290.015 C 30.093 292.679,27.527 296.400,28.824 296.400 C 29.057 296.400,29.145 296.235,29.020 296.032 C 28.895 295.830,29.071 295.386,29.411 295.047 C 29.750 294.707,29.977 294.356,29.914 294.266 C 29.851 294.177,30.610 293.429,31.600 292.605 C 32.590 291.780,33.532 290.758,33.694 290.334 C 33.856 289.910,34.531 289.373,35.194 289.142 C 35.857 288.911,36.400 288.511,36.400 288.254 C 36.400 287.729,45.176 278.851,45.800 278.744 C 46.503 278.624,48.400 277.066,48.400 276.608 C 48.400 276.131,51.761 272.688,52.158 272.758 C 52.872 272.883,53.223 272.761,53.033 272.453 C 52.787 272.055,53.857 271.044,54.925 270.664 C 55.324 270.522,55.557 270.254,55.442 270.068 C 55.221 269.711,58.291 266.509,58.645 266.728 C 58.919 266.897,62.400 263.677,62.400 263.254 C 62.400 263.072,62.760 262.598,63.200 262.200 C 63.640 261.802,64.000 261.606,64.000 261.765 C 64.000 261.924,64.540 261.670,65.200 261.200 C 65.860 260.730,66.400 260.123,66.400 259.851 C 66.400 259.229,68.650 257.135,70.086 256.420 C 70.684 256.123,71.093 255.751,70.996 255.593 C 70.782 255.248,71.811 254.360,73.266 253.633 C 74.135 253.199,75.156 251.600,74.564 251.600 C 74.475 251.600,71.567 254.152,68.101 257.271 M76.110 255.900 C 75.782 256.766,75.311 257.250,73.893 258.177 C 72.819 258.880,72.795 258.879,73.074 258.152 C 73.530 256.964,74.875 255.742,76.287 255.232 C 76.336 255.214,76.256 255.515,76.110 255.900 M64.827 266.374 C 63.596 267.577,63.200 267.821,63.200 267.377 C 63.200 267.032,65.734 264.801,65.918 264.985 C 66.008 265.074,65.517 265.699,64.827 266.374 M151.137 289.900 C 148.645 292.871,146.977 302.048,148.539 304.184 C 149.638 305.687,153.600 304.435,153.600 302.584 C 153.600 302.080,153.794 301.602,154.030 301.523 C 155.218 301.127,152.984 291.831,151.611 291.459 C 151.234 291.356,151.328 291.275,151.857 291.246 C 152.757 291.198,153.202 290.543,152.908 289.700 C 152.659 288.988,151.823 289.082,151.137 289.900 M370.000 297.000 C 370.746 297.770,371.447 298.400,371.557 298.400 C 371.667 298.400,371.146 297.770,370.400 297.000 C 369.654 296.230,368.953 295.600,368.843 295.600 C 368.733 295.600,369.254 296.230,370.000 297.000 M372.400 298.925 C 372.400 298.994,372.985 299.579,373.700 300.225 L 375.000 301.400 373.825 300.100 C 372.730 298.888,372.400 298.616,372.400 298.925 M378.288 304.413 C 379.876 306.101,381.361 307.971,381.588 308.567 C 382.134 310.004,382.144 312.842,381.600 312.000 C 381.387 311.670,381.209 311.589,381.206 311.820 C 381.203 312.051,381.408 312.448,381.663 312.703 C 381.995 313.035,382.004 313.313,381.697 313.683 C 381.461 313.967,381.208 314.380,381.134 314.600 C 381.060 314.820,380.843 314.948,380.651 314.884 C 380.459 314.820,380.401 315.025,380.522 315.341 C 380.751 315.936,379.274 317.600,378.517 317.600 C 378.280 317.600,377.980 317.874,377.852 318.209 C 377.509 319.102,378.698 318.380,380.283 316.731 C 383.914 312.955,383.433 309.399,378.641 304.594 L 375.400 301.344 378.288 304.413 M375.796 312.807 C 375.658 313.030,375.414 313.132,375.253 313.033 C 375.093 312.934,374.722 313.001,374.428 313.183 C 374.023 313.433,374.096 313.576,374.732 313.778 C 375.625 314.062,377.200 313.428,377.200 312.786 C 377.200 312.274,376.115 312.290,375.796 312.807 " stroke="none" fill="#d04ab9" fill-rule="evenodd"></path><path id="path2" d="M256.596 97.607 C 256.458 97.830,256.147 97.891,255.904 97.741 C 255.621 97.566,255.555 97.706,255.719 98.134 C 255.860 98.500,255.801 98.800,255.587 98.800 C 255.374 98.800,255.200 98.620,255.200 98.400 C 255.200 98.141,251.090 98.030,243.500 98.085 C 233.302 98.158,232.622 98.199,238.200 98.400 C 243.221 98.581,241.412 98.659,229.800 98.762 C 214.541 98.898,213.481 99.146,224.490 100.005 C 230.065 100.441,234.760 101.044,233.400 101.150 C 232.732 101.202,232.699 101.276,233.200 101.600 C 233.600 101.858,233.633 101.990,233.300 101.994 C 232.350 102.006,232.804 102.786,233.900 103.025 C 235.676 103.413,237.200 104.070,237.200 104.449 C 237.200 104.642,237.470 104.800,237.800 104.800 C 238.130 104.800,238.400 105.087,238.400 105.437 C 238.400 105.788,238.758 106.169,239.196 106.283 C 239.633 106.397,239.905 106.631,239.799 106.802 C 239.349 107.529,241.705 108.470,243.641 108.336 C 245.213 108.227,245.600 108.324,245.600 108.828 C 245.600 109.581,237.659 120.722,234.669 124.165 C 231.597 127.701,225.993 135.021,224.229 137.800 C 223.391 139.120,222.122 140.920,221.410 141.800 C 219.175 144.561,209.200 159.622,207.919 162.169 C 207.247 163.506,205.107 167.486,203.164 171.014 C 200.013 176.735,196.708 183.803,195.168 188.118 C 193.422 193.011,192.326 192.399,187.296 183.720 C 185.919 181.344,184.344 178.860,183.796 178.200 C 183.248 177.540,183.925 178.848,185.300 181.107 C 186.675 183.365,188.661 186.649,189.714 188.403 C 192.881 193.679,194.061 193.333,197.036 186.255 C 199.461 180.485,201.351 176.721,205.398 169.600 C 207.211 166.410,209.078 163.042,209.547 162.116 C 210.671 159.896,219.528 146.908,222.173 143.600 C 223.317 142.170,225.042 139.830,226.007 138.400 C 228.537 134.651,232.968 129.004,236.909 124.505 C 238.791 122.357,241.432 119.250,242.778 117.600 C 244.125 115.950,247.827 111.990,251.006 108.800 L 256.786 103.000 256.453 100.903 C 256.201 99.317,256.257 98.610,256.683 98.003 C 256.992 97.561,257.156 97.200,257.046 97.200 C 256.937 97.200,256.734 97.383,256.596 97.607 M113.500 98.700 C 123.455 98.759,139.745 98.759,149.700 98.700 C 159.655 98.640,151.510 98.592,131.600 98.592 C 111.690 98.592,103.545 98.640,113.500 98.700 M253.448 99.123 C 253.256 99.432,250.400 99.277,250.400 98.956 C 250.400 98.870,251.131 98.800,252.024 98.800 C 252.917 98.800,253.558 98.945,253.448 99.123 M233.566 99.643 C 232.909 99.884,232.179 99.882,231.566 99.637 C 230.753 99.312,230.918 99.252,232.600 99.257 C 234.326 99.262,234.458 99.315,233.566 99.643 M239.107 99.486 C 238.506 99.577,237.426 99.579,236.707 99.490 C 235.988 99.401,236.480 99.326,237.800 99.324 C 239.120 99.322,239.708 99.395,239.107 99.486 M306.308 102.534 L 303.616 102.892 299.508 107.146 C 297.249 109.486,293.671 113.470,291.558 116.000 C 289.445 118.530,286.385 122.046,284.758 123.814 C 280.524 128.414,277.286 132.184,274.805 135.400 C 273.618 136.940,271.283 139.730,269.617 141.600 C 265.799 145.886,262.471 149.992,259.400 154.208 C 258.080 156.020,255.454 159.549,253.565 162.051 C 247.801 169.686,243.006 176.456,241.279 179.400 C 240.375 180.940,238.287 184.270,236.638 186.800 C 230.681 195.941,228.584 199.550,224.087 208.400 C 218.355 219.681,214.976 226.994,212.589 233.287 C 209.495 241.445,207.056 243.200,198.811 243.200 C 191.699 243.200,189.093 241.290,183.580 232.038 C 182.191 229.707,180.251 226.555,179.270 225.033 C 178.288 223.511,176.139 219.911,174.493 217.033 C 172.848 214.155,170.205 209.910,168.621 207.600 C 167.036 205.290,164.695 201.735,163.418 199.700 C 162.141 197.665,161.019 196.000,160.924 196.000 C 160.830 196.000,160.833 196.135,160.931 196.300 C 163.279 200.247,166.034 204.675,168.102 207.827 C 169.537 210.012,172.011 214.140,173.601 217.000 C 175.191 219.860,177.158 223.280,177.973 224.600 C 178.788 225.920,180.322 228.620,181.383 230.600 C 187.875 242.726,190.363 244.825,199.543 245.926 C 203.780 246.434,203.771 246.422,202.541 250.037 C 201.342 253.560,200.998 253.840,196.863 254.659 C 193.407 255.344,155.977 256.128,153.800 255.561 C 153.140 255.390,145.310 255.039,136.400 254.782 C 127.490 254.526,117.095 254.224,113.299 254.112 C 105.333 253.878,106.200 253.581,101.177 258.262 C 88.770 269.825,87.529 271.896,91.706 274.073 C 93.211 274.857,94.105 274.967,99.714 275.063 C 103.186 275.121,106.221 275.290,106.459 275.436 C 106.696 275.583,111.055 275.849,116.145 276.026 C 121.235 276.204,129.720 276.703,135.000 277.134 C 142.379 277.737,146.636 277.869,153.400 277.704 C 163.155 277.467,177.557 278.124,182.241 279.020 C 183.907 279.339,186.352 279.600,187.674 279.600 C 188.995 279.600,191.005 279.862,192.138 280.183 C 193.272 280.504,197.892 281.126,202.405 281.567 C 214.659 282.764,215.600 283.228,215.600 288.068 C 215.600 289.797,215.865 292.244,216.189 293.506 C 216.514 294.768,216.889 297.366,217.024 299.279 C 217.287 303.025,217.359 303.147,219.860 304.117 C 223.200 305.413,236.120 306.992,252.058 308.052 C 262.805 308.766,262.976 308.609,258.943 301.732 C 255.994 296.705,253.866 292.125,254.144 291.402 C 254.471 290.550,255.645 290.613,268.487 292.180 C 280.211 293.611,291.909 294.876,300.200 295.609 C 302.840 295.843,306.890 296.208,309.200 296.420 C 313.329 296.799,325.586 297.685,337.400 298.458 C 340.700 298.674,348.350 298.936,354.400 299.041 C 361.605 299.166,365.719 299.392,366.326 299.697 C 367.058 300.065,367.322 300.050,367.586 299.623 C 367.769 299.326,368.183 299.185,368.505 299.308 C 368.947 299.478,369.081 299.222,369.053 298.266 C 369.027 297.408,369.206 296.992,369.608 296.975 C 370.306 296.945,371.600 297.951,371.600 298.524 C 371.600 298.744,371.271 298.626,370.869 298.262 C 369.975 297.454,369.600 297.423,369.600 298.157 C 369.600 298.463,370.049 298.826,370.598 298.964 C 371.146 299.101,371.551 299.428,371.498 299.689 C 371.444 299.950,371.803 300.172,372.297 300.182 C 372.902 300.194,373.437 300.655,373.944 301.600 C 374.357 302.370,374.799 302.910,374.925 302.800 C 375.052 302.690,375.762 303.188,376.504 303.907 C 377.246 304.626,377.952 305.115,378.073 304.994 C 378.194 304.872,378.857 305.415,379.547 306.200 C 380.236 306.986,380.800 307.506,380.800 307.356 C 380.800 306.956,374.243 300.189,373.949 300.286 C 373.811 300.331,372.943 299.472,372.020 298.378 C 371.097 297.284,370.201 296.476,370.029 296.582 C 369.856 296.689,369.142 296.064,368.443 295.193 C 367.743 294.322,367.029 293.653,366.857 293.705 C 366.685 293.757,366.060 293.260,365.470 292.600 C 364.750 291.795,364.485 291.652,364.666 292.166 C 364.853 292.695,364.792 292.842,364.468 292.642 C 364.211 292.483,364.000 292.106,364.000 291.805 C 364.000 291.503,362.065 289.586,359.700 287.545 C 357.335 285.504,354.352 282.878,353.071 281.711 C 351.790 280.544,350.588 279.684,350.399 279.801 C 350.210 279.918,349.925 279.802,349.766 279.545 C 349.574 279.234,349.665 279.175,350.038 279.369 C 350.347 279.529,350.176 279.288,349.658 278.833 C 349.140 278.377,348.587 278.085,348.428 278.183 C 348.269 278.281,347.061 277.335,345.743 276.080 C 344.425 274.826,343.989 274.344,344.773 275.009 C 348.155 277.873,348.487 278.064,346.600 276.060 C 344.421 273.746,337.983 268.539,337.500 268.700 C 337.335 268.755,337.245 268.654,337.300 268.475 C 337.355 268.296,335.258 266.181,332.640 263.775 C 325.039 256.788,323.414 255.361,323.782 256.000 C 323.973 256.330,324.005 256.491,323.855 256.357 C 323.704 256.224,323.517 253.621,323.438 250.573 C 323.359 247.525,323.130 244.977,322.929 244.910 C 322.728 244.843,322.637 243.619,322.728 242.191 C 322.826 240.655,322.715 239.380,322.457 239.069 C 322.189 238.746,322.116 237.742,322.266 236.472 C 322.414 235.226,322.356 234.400,322.122 234.400 C 321.886 234.400,321.806 233.118,321.921 231.143 C 322.067 228.626,321.997 227.954,321.616 228.190 C 321.232 228.427,321.186 227.818,321.408 225.447 C 321.570 223.727,321.540 222.400,321.339 222.400 C 321.144 222.400,321.054 221.026,321.139 219.348 C 321.257 217.003,321.179 216.366,320.800 216.600 C 320.416 216.837,320.372 216.173,320.600 213.600 C 320.793 211.417,320.756 210.380,320.491 210.544 C 320.228 210.706,320.153 209.580,320.275 207.296 C 320.413 204.690,320.348 203.953,320.020 204.400 C 319.691 204.847,319.627 204.081,319.768 201.400 C 319.895 198.988,319.847 198.262,319.622 199.200 C 319.395 200.145,319.327 199.170,319.413 196.200 C 319.511 192.800,319.462 192.254,319.199 193.800 C 318.937 195.342,318.893 194.838,319.006 191.600 C 319.091 189.157,319.014 187.735,318.822 188.200 C 318.631 188.663,318.541 186.892,318.610 184.000 C 318.703 180.078,318.658 179.517,318.399 181.400 C 318.136 183.306,318.090 182.772,318.174 178.800 C 318.236 175.861,318.156 174.377,317.979 175.200 C 317.803 176.015,317.734 174.678,317.814 172.000 C 317.912 168.689,317.851 167.848,317.599 169.000 C 317.342 170.171,317.282 169.420,317.375 166.200 C 317.452 163.548,317.373 162.197,317.175 162.800 C 316.990 163.367,316.950 162.085,317.083 159.840 C 317.266 156.768,317.208 155.948,316.828 156.183 C 316.448 156.417,316.396 155.732,316.598 153.143 C 316.772 150.899,316.728 149.987,316.463 150.369 C 316.198 150.750,316.143 149.578,316.296 146.807 C 316.475 143.554,316.417 142.743,316.022 142.987 C 315.626 143.231,315.581 142.567,315.807 139.848 C 315.973 137.856,315.942 136.400,315.734 136.400 C 315.536 136.400,315.446 135.116,315.535 133.547 C 315.662 131.307,315.587 130.761,315.187 131.008 C 314.783 131.258,314.734 130.767,314.950 128.662 C 315.100 127.198,315.079 126.000,314.903 126.000 C 314.728 126.000,314.653 124.650,314.736 123.000 C 314.848 120.790,314.756 120.000,314.389 120.000 C 314.008 120.000,313.955 119.196,314.166 116.600 C 314.353 114.291,314.305 113.200,314.016 113.200 C 313.744 113.200,313.683 112.624,313.846 111.600 C 314.006 110.600,313.947 110.000,313.689 110.000 C 313.461 110.000,313.376 109.612,313.500 109.137 C 313.665 108.509,313.588 108.360,313.220 108.588 C 312.849 108.817,312.785 108.679,312.978 108.070 C 313.388 106.778,310.644 102.106,309.503 102.155 C 309.227 102.166,307.789 102.337,306.308 102.534 M80.924 142.600 C 80.926 143.920,81.001 144.412,81.090 143.693 C 81.179 142.974,81.177 141.894,81.086 141.293 C 80.995 140.692,80.922 141.280,80.924 142.600 M80.093 157.200 C 80.093 157.970,80.175 158.285,80.276 157.900 C 80.376 157.515,80.376 156.885,80.276 156.500 C 80.175 156.115,80.093 156.430,80.093 157.200 M79.693 168.400 C 79.693 169.170,79.775 169.485,79.876 169.100 C 79.976 168.715,79.976 168.085,79.876 167.700 C 79.775 167.315,79.693 167.630,79.693 168.400 M78.893 183.200 C 78.893 183.970,78.975 184.285,79.076 183.900 C 79.176 183.515,79.176 182.885,79.076 182.500 C 78.975 182.115,78.893 182.430,78.893 183.200 M78.501 188.600 C 78.505 189.480,78.587 189.793,78.683 189.295 C 78.779 188.798,78.775 188.078,78.675 187.695 C 78.575 187.313,78.496 187.720,78.501 188.600 M78.093 200.000 C 78.093 200.770,78.175 201.085,78.276 200.700 C 78.376 200.315,78.376 199.685,78.276 199.300 C 78.175 198.915,78.093 199.230,78.093 200.000 M77.206 214.300 C 77.211 215.101,77.309 215.247,77.569 214.836 C 77.765 214.526,77.833 214.031,77.720 213.736 C 77.396 212.890,77.199 213.106,77.206 214.300 M76.914 220.600 C 76.917 221.700,76.995 222.103,77.087 221.495 C 77.179 220.886,77.177 219.986,77.082 219.495 C 76.987 219.003,76.911 219.500,76.914 220.600 M321.476 231.900 C 321.375 232.285,321.293 231.970,321.293 231.200 C 321.293 230.430,321.375 230.115,321.476 230.500 C 321.576 230.885,321.576 231.515,321.476 231.900 M76.134 237.600 C 76.134 239.250,76.205 239.925,76.291 239.100 C 76.378 238.275,76.378 236.925,76.291 236.100 C 76.205 235.275,76.134 235.950,76.134 237.600 M323.089 253.300 C 323.001 254.015,322.928 253.430,322.928 252.000 C 322.928 250.570,323.001 249.985,323.089 250.700 C 323.178 251.415,323.178 252.585,323.089 253.300 M123.400 255.401 C 124.060 255.509,128.830 255.692,134.000 255.806 C 139.170 255.921,146.190 256.199,149.600 256.425 C 153.010 256.651,160.390 256.896,166.000 256.968 C 171.610 257.041,181.960 257.246,189.000 257.423 C 196.040 257.600,203.330 257.702,205.200 257.648 C 207.070 257.594,216.430 257.761,226.000 258.018 C 235.570 258.275,246.327 258.458,249.905 258.426 C 253.483 258.393,257.443 258.547,258.705 258.768 C 259.967 258.989,265.860 259.264,271.800 259.379 C 277.740 259.495,283.770 259.687,285.200 259.807 C 286.630 259.926,291.312 260.082,295.604 260.152 C 304.838 260.303,305.025 260.366,307.922 264.290 C 309.023 265.780,311.372 268.587,313.143 270.527 C 317.888 275.724,317.846 276.800,312.897 276.800 C 306.291 276.800,307.451 280.117,314.200 280.524 C 316.180 280.644,318.115 280.864,318.500 281.013 C 319.603 281.442,319.363 282.744,318.124 283.055 C 316.698 283.413,297.128 282.925,292.355 282.413 C 290.290 282.191,284.010 281.927,278.400 281.827 C 272.790 281.726,260.755 281.393,251.656 281.086 C 242.556 280.779,234.675 280.611,234.142 280.713 C 233.608 280.815,232.053 280.673,230.686 280.398 C 229.134 280.086,225.198 279.915,220.213 279.943 C 215.821 279.967,211.092 279.806,209.706 279.585 C 208.319 279.363,203.619 279.126,199.262 279.058 C 194.905 278.990,191.129 278.804,190.872 278.644 C 190.359 278.327,183.337 277.559,179.200 277.368 C 177.770 277.301,173.701 277.050,170.157 276.809 C 165.978 276.525,163.119 276.504,162.022 276.751 C 161.091 276.960,158.321 277.059,155.865 276.970 C 138.713 276.355,129.585 275.873,125.599 275.375 C 122.295 274.962,120.603 274.914,119.599 275.205 C 118.298 275.583,110.782 275.430,107.713 274.964 C 105.864 274.683,105.206 273.873,105.476 272.211 C 105.672 270.999,105.569 270.769,104.635 270.343 C 103.078 269.634,102.037 270.686,102.750 272.250 C 103.615 274.149,102.659 274.605,97.883 274.572 C 87.367 274.500,87.483 271.268,98.331 262.110 C 100.822 260.006,103.252 257.754,103.731 257.105 C 105.357 254.898,105.855 254.800,114.400 255.011 C 118.690 255.117,122.740 255.292,123.400 255.401 M67.578 258.300 L 66.200 259.800 67.700 258.422 C 69.096 257.138,69.384 256.800,69.078 256.800 C 69.012 256.800,68.337 257.475,67.578 258.300 M329.800 261.634 C 330.240 262.140,329.745 261.851,328.700 260.992 C 327.655 260.133,326.800 259.366,326.800 259.288 C 326.800 259.002,329.022 260.739,329.800 261.634 M334.400 265.889 C 334.400 266.193,332.900 265.201,332.367 264.545 C 332.016 264.113,332.296 264.210,333.100 264.799 C 333.815 265.322,334.400 265.813,334.400 265.889 M56.581 268.500 L 55.000 270.200 56.700 268.619 C 58.281 267.148,58.584 266.800,58.281 266.800 C 58.216 266.800,57.451 267.565,56.581 268.500 M50.000 274.600 C 49.028 275.590,48.323 276.400,48.433 276.400 C 48.543 276.400,49.428 275.590,50.400 274.600 C 51.372 273.610,52.077 272.800,51.967 272.800 C 51.857 272.800,50.972 273.610,50.000 274.600 M276.427 275.973 C 274.230 278.170,275.876 278.953,283.930 279.545 C 291.090 280.071,293.665 278.796,290.759 276.162 C 289.405 274.934,277.621 274.779,276.427 275.973 M40.793 283.500 L 36.200 288.200 40.900 283.607 C 43.485 281.080,45.600 278.965,45.600 278.907 C 45.600 278.618,45.060 279.134,40.793 283.500 M354.000 283.075 C 354.000 283.353,351.660 281.621,351.344 281.109 C 351.189 280.859,351.724 281.159,352.532 281.775 C 353.339 282.391,354.000 282.976,354.000 283.075 M28.400 298.200 C 28.400 299.564,28.551 300.000,29.024 300.000 C 29.391 300.000,29.531 300.189,29.364 300.459 C 29.159 300.791,29.622 300.856,31.040 300.695 C 32.836 300.491,33.234 300.617,35.800 302.199 C 40.621 305.173,42.926 305.629,57.000 306.392 C 61.180 306.619,68.380 307.064,73.000 307.381 C 77.620 307.699,84.370 308.150,88.000 308.383 C 98.019 309.027,102.307 309.582,102.570 310.267 C 102.694 310.588,102.996 310.726,103.242 310.574 C 103.488 310.422,103.836 310.534,104.014 310.823 C 104.247 311.199,104.490 311.229,104.870 310.929 C 105.610 310.343,106.396 310.268,111.331 310.313 C 116.019 310.356,116.909 310.683,116.624 312.256 C 116.528 312.784,116.606 313.120,116.797 313.002 C 116.988 312.884,117.258 312.970,117.396 313.193 C 117.534 313.417,117.952 313.593,118.324 313.584 C 118.779 313.573,118.636 313.371,117.888 312.965 C 117.224 312.605,116.891 312.176,117.061 311.901 C 117.275 311.556,117.385 311.555,117.499 311.897 C 117.583 312.149,117.917 312.253,118.242 312.128 C 118.567 312.004,118.797 312.059,118.753 312.251 C 118.505 313.332,119.354 313.999,120.943 313.972 C 122.235 313.950,122.424 313.868,121.800 313.600 C 121.360 313.411,121.180 313.241,121.400 313.222 C 121.620 313.203,121.558 313.034,121.262 312.847 C 120.869 312.598,121.030 312.429,121.858 312.221 C 122.482 312.065,123.114 311.740,123.262 311.500 C 123.582 310.981,132.579 310.839,135.000 311.314 C 135.880 311.487,137.860 311.605,139.400 311.576 C 148.197 311.414,151.814 311.438,159.400 311.709 C 172.543 312.178,176.432 312.411,178.799 312.871 C 180.009 313.106,184.689 313.362,189.199 313.440 C 193.710 313.518,200.910 313.734,205.200 313.919 C 209.490 314.104,218.400 314.291,225.000 314.334 C 237.202 314.415,262.209 315.000,270.200 315.393 C 272.620 315.511,279.640 315.787,285.800 316.005 C 300.358 316.520,306.276 316.786,308.000 317.003 C 309.421 317.182,310.582 317.269,321.562 318.018 C 328.839 318.515,330.698 319.245,329.001 320.942 C 328.284 321.659,329.809 322.028,333.150 321.943 C 335.308 321.889,335.335 321.876,333.800 321.618 C 332.249 321.357,332.234 321.339,333.293 321.033 C 333.930 320.849,334.914 320.901,335.653 321.158 C 337.627 321.847,338.110 321.752,337.590 320.781 C 337.267 320.179,336.919 320.032,336.276 320.226 C 335.546 320.446,335.486 320.399,335.919 319.945 C 336.325 319.520,338.350 319.392,345.119 319.365 C 354.651 319.326,360.529 319.754,356.128 320.166 C 355.869 320.190,355.536 320.331,355.389 320.478 C 355.242 320.625,354.914 320.697,354.661 320.638 C 354.407 320.579,354.336 320.607,354.502 320.700 C 354.669 320.792,354.692 321.051,354.554 321.274 C 354.416 321.497,354.722 321.456,355.233 321.183 C 355.917 320.817,356.202 320.806,356.314 321.143 C 356.406 321.418,357.449 321.605,358.933 321.613 C 360.465 321.621,361.694 321.848,362.176 322.213 C 362.604 322.536,363.504 322.797,364.176 322.794 C 365.157 322.789,365.281 322.702,364.800 322.356 C 364.301 321.997,364.323 321.965,364.933 322.162 C 365.336 322.293,365.763 322.400,365.882 322.400 C 366.001 322.400,365.874 322.670,365.600 323.000 C 365.184 323.501,365.242 323.600,365.951 323.600 C 366.418 323.600,366.755 323.399,366.700 323.153 C 366.645 322.907,366.925 322.652,367.322 322.585 C 367.890 322.490,367.948 322.581,367.593 323.008 C 367.218 323.461,367.397 323.483,368.671 323.144 C 369.512 322.920,370.425 322.446,370.700 322.092 C 370.981 321.730,371.200 321.652,371.200 321.915 C 371.200 322.269,371.444 322.272,372.200 321.927 C 372.750 321.677,373.200 321.236,373.200 320.948 C 373.200 320.625,373.454 320.523,373.866 320.681 C 374.310 320.851,374.436 320.782,374.245 320.473 C 374.070 320.190,374.162 320.084,374.479 320.200 C 375.274 320.492,376.148 319.762,375.869 319.037 C 375.733 318.682,375.482 318.432,375.311 318.481 C 374.759 318.639,373.200 317.588,373.200 317.059 C 373.200 316.538,372.137 316.485,336.200 315.209 C 330.260 314.998,318.290 314.635,309.600 314.403 C 284.579 313.735,269.125 313.218,262.000 312.811 C 250.890 312.175,236.360 311.622,214.600 311.006 C 203.160 310.682,191.100 310.320,187.800 310.202 C 184.500 310.083,174.240 309.719,165.000 309.393 C 130.361 308.169,125.455 307.993,115.550 307.611 C 109.968 307.395,98.740 306.858,90.600 306.417 C 82.460 305.976,70.490 305.338,64.000 304.999 C 42.003 303.850,41.560 303.777,35.424 300.287 C 33.458 299.169,31.787 298.440,31.710 298.669 C 31.426 299.523,29.652 298.724,29.245 297.558 C 28.672 295.914,28.400 296.121,28.400 298.200 M376.430 303.100 L 377.400 304.200 376.370 303.296 C 375.804 302.799,375.190 302.529,375.006 302.696 C 374.822 302.863,374.801 302.775,374.959 302.500 C 375.338 301.842,375.312 301.831,376.430 303.100 M68.200 312.400 C 68.336 312.620,69.022 312.782,69.724 312.760 C 70.943 312.722,70.955 312.706,70.000 312.400 C 68.564 311.940,67.916 311.940,68.200 312.400 M82.706 312.677 C 83.204 312.776,83.509 313.024,83.382 313.229 C 83.249 313.445,84.376 313.595,86.076 313.588 C 89.764 313.572,88.914 312.983,84.800 312.702 C 83.150 312.589,82.208 312.578,82.706 312.677 M99.565 313.470 C 100.314 313.627,100.403 313.753,99.965 314.030 C 99.609 314.255,100.658 314.377,102.800 314.359 C 106.669 314.327,105.884 313.847,101.375 313.488 C 99.849 313.366,99.034 313.358,99.565 313.470 M115.366 313.545 C 115.498 313.758,115.379 314.023,115.102 314.134 C 114.823 314.247,114.955 314.363,115.400 314.397 L 116.200 314.456 115.400 314.800 C 114.888 315.020,116.114 315.140,118.800 315.132 C 122.683 315.121,123.308 314.543,119.549 314.440 C 118.751 314.418,117.429 314.121,116.613 313.779 C 115.796 313.438,115.235 313.333,115.366 313.545 M133.506 315.083 C 134.004 315.179,134.309 315.424,134.182 315.629 C 134.047 315.847,135.322 315.982,137.276 315.955 L 140.600 315.910 137.800 315.380 C 136.260 315.088,134.460 314.863,133.800 314.879 C 132.875 314.902,132.808 314.949,133.506 315.083 M157.600 316.061 C 159.889 316.584,165.844 316.909,164.342 316.430 C 163.760 316.244,161.600 315.992,159.542 315.871 C 156.418 315.686,156.097 315.718,157.600 316.061 M177.800 316.685 C 178.240 316.791,178.771 317.040,178.980 317.239 C 179.189 317.437,180.539 317.578,181.980 317.552 L 184.600 317.504 181.400 316.982 C 178.274 316.472,176.205 316.301,177.800 316.685 M196.346 317.795 C 197.086 318.128,198.616 318.382,199.746 318.360 C 202.105 318.314,200.972 317.933,197.000 317.439 L 195.000 317.189 196.346 317.795 M212.400 318.621 C 213.390 318.933,214.920 319.172,215.800 319.153 C 217.315 319.120,217.273 319.089,215.000 318.576 C 211.736 317.840,210.015 317.869,212.400 318.621 M230.200 319.600 C 230.640 319.789,231.540 319.938,232.200 319.932 C 233.370 319.921,233.375 319.912,232.400 319.600 C 230.933 319.130,229.106 319.130,230.200 319.600 M247.800 320.400 C 248.240 320.589,248.870 320.744,249.200 320.744 C 249.578 320.744,249.504 320.617,249.000 320.400 C 248.560 320.211,247.930 320.056,247.600 320.056 C 247.222 320.056,247.296 320.183,247.800 320.400 M338.177 320.762 C 338.300 320.962,338.761 321.031,339.200 320.916 C 340.301 320.628,340.202 320.400,338.976 320.400 C 338.413 320.400,338.054 320.563,338.177 320.762 M295.105 321.483 C 295.602 321.579,296.322 321.575,296.705 321.475 C 297.087 321.375,296.680 321.296,295.800 321.301 C 294.920 321.305,294.607 321.387,295.105 321.483 M298.800 321.982 C 299.338 322.346,303.970 322.609,303.567 322.253 C 303.475 322.172,302.230 321.987,300.800 321.841 C 298.990 321.657,298.382 321.700,298.800 321.982 M339.000 322.000 L 336.200 322.259 339.276 322.329 C 340.977 322.368,342.463 322.221,342.600 322.000 C 342.736 321.780,342.612 321.632,342.324 321.671 C 342.036 321.709,340.540 321.858,339.000 322.000 M325.707 322.269 C 326.316 322.371,326.710 322.622,326.583 322.827 C 326.445 323.051,328.322 323.180,331.276 323.149 C 335.490 323.106,335.854 323.055,333.800 322.797 C 331.017 322.448,324.061 321.994,325.707 322.269 M354.400 322.400 C 353.016 322.691,353.014 322.695,354.200 322.741 C 354.860 322.767,355.670 322.613,356.000 322.400 C 356.666 321.970,356.445 321.970,354.400 322.400 " stroke="none" fill="#5c33b2" fill-rule="evenodd"></path><path id="path3" d="M259.578 94.300 L 258.200 95.800 259.700 94.422 C 261.096 93.138,261.384 92.800,261.078 92.800 C 261.012 92.800,260.337 93.475,259.578 94.300 M310.526 101.900 C 310.389 102.285,310.187 102.763,310.077 102.962 C 309.966 103.161,310.065 103.207,310.296 103.064 C 310.766 102.774,311.369 103.876,311.246 104.800 C 311.179 105.309,311.225 105.314,311.548 104.833 C 311.807 104.449,311.734 103.965,311.321 103.336 C 310.986 102.825,310.816 102.135,310.943 101.803 C 311.071 101.471,311.085 101.200,310.975 101.200 C 310.865 101.200,310.663 101.515,310.526 101.900 M312.182 105.927 C 312.201 107.036,312.489 107.267,313.067 106.636 C 313.263 106.421,313.177 106.401,312.857 106.586 C 312.448 106.823,312.378 106.699,312.573 106.084 C 312.716 105.635,312.682 105.174,312.498 105.061 C 312.314 104.947,312.172 105.337,312.182 105.927 M313.812 112.117 C 313.641 112.512,313.613 112.947,313.751 113.084 C 314.157 113.490,314.484 112.920,314.297 112.131 C 314.132 111.433,314.110 111.432,313.812 112.117 M314.250 115.650 C 313.868 117.560,313.952 120.000,314.400 120.000 C 314.629 120.000,314.800 118.800,314.800 117.200 C 314.800 114.156,314.639 113.704,314.250 115.650 M315.105 127.600 C 314.641 129.178,314.721 131.439,315.224 130.936 C 315.458 130.702,315.593 129.631,315.524 128.556 C 315.424 126.972,315.344 126.790,315.105 127.600 M315.900 139.550 C 315.446 141.594,315.513 143.447,316.023 142.937 C 316.255 142.705,316.390 141.544,316.323 140.357 C 316.209 138.351,316.179 138.295,315.900 139.550 M80.509 140.400 C 80.509 141.390,80.587 141.795,80.682 141.300 C 80.778 140.805,80.778 139.995,80.682 139.500 C 80.587 139.005,80.509 139.410,80.509 140.400 M316.006 149.900 C 316.011 150.757,316.098 150.868,316.400 150.400 C 316.906 149.617,316.906 148.800,316.400 148.800 C 316.180 148.800,316.003 149.295,316.006 149.900 M316.700 153.150 C 316.250 155.175,316.311 156.649,316.824 156.136 C 317.058 155.902,317.193 154.831,317.124 153.756 C 317.004 151.860,316.991 151.842,316.700 153.150 M79.693 155.200 C 79.693 155.970,79.775 156.285,79.876 155.900 C 79.976 155.515,79.976 154.885,79.876 154.500 C 79.775 154.115,79.693 154.430,79.693 155.200 M317.100 160.231 C 316.935 160.397,316.816 161.268,316.836 162.167 L 316.872 163.800 317.258 162.460 C 317.675 161.012,317.585 159.742,317.100 160.231 M317.505 164.000 C 317.343 164.550,317.230 166.260,317.252 167.800 L 317.294 170.600 317.661 168.400 C 318.104 165.755,317.984 162.376,317.505 164.000 M79.301 167.800 C 79.305 168.680,79.387 168.993,79.483 168.495 C 79.579 167.998,79.575 167.278,79.475 166.895 C 79.375 166.513,79.296 166.920,79.301 167.800 M78.914 171.800 C 78.917 172.900,78.995 173.303,79.087 172.695 C 79.179 172.086,79.177 171.186,79.082 170.695 C 78.987 170.203,78.911 170.700,78.914 171.800 M317.600 174.667 C 317.600 176.888,317.792 176.830,318.149 174.500 C 318.310 173.449,318.255 172.800,318.005 172.800 C 317.782 172.800,317.600 173.640,317.600 174.667 M318.296 176.533 C 318.133 176.936,318.024 178.736,318.053 180.533 L 318.106 183.800 318.455 180.600 C 318.854 176.945,318.790 175.312,318.296 176.533 M78.493 182.400 C 78.493 183.170,78.575 183.485,78.676 183.100 C 78.776 182.715,78.776 182.085,78.676 181.700 C 78.575 181.315,78.493 181.630,78.493 182.400 M78.093 186.400 C 78.093 187.170,78.175 187.485,78.276 187.100 C 78.376 186.715,78.376 186.085,78.276 185.700 C 78.175 185.315,78.093 185.630,78.093 186.400 M318.703 186.000 C 318.542 186.550,318.420 187.450,318.431 188.000 L 318.451 189.000 318.844 188.015 C 319.060 187.474,319.182 186.574,319.116 186.015 L 318.995 185.000 318.703 186.000 M319.099 189.800 C 318.939 190.680,318.830 192.390,318.855 193.600 L 318.901 195.800 319.264 193.000 C 319.691 189.700,319.564 187.237,319.099 189.800 M319.200 198.867 C 319.200 200.841,319.398 200.777,319.718 198.700 C 319.846 197.869,319.782 197.200,319.575 197.200 C 319.369 197.200,319.200 197.950,319.200 198.867 M319.900 201.550 C 319.437 203.634,319.513 205.190,320.035 204.295 C 320.261 203.907,320.390 202.827,320.323 201.895 L 320.200 200.200 319.900 201.550 M77.314 203.400 C 77.317 204.500,77.395 204.903,77.487 204.295 C 77.579 203.686,77.577 202.786,77.482 202.295 C 77.387 201.803,77.311 202.300,77.314 203.400 M320.000 210.024 C 320.000 210.477,320.180 210.736,320.400 210.600 C 320.620 210.464,320.800 210.093,320.800 209.776 C 320.800 209.459,320.620 209.200,320.400 209.200 C 320.180 209.200,320.000 209.571,320.000 210.024 M320.704 213.000 C 320.260 215.404,320.315 217.045,320.822 216.538 C 321.054 216.306,321.189 215.055,321.122 213.758 C 321.002 211.443,320.995 211.429,320.704 213.000 M76.893 213.600 C 76.893 214.370,76.975 214.685,77.076 214.300 C 77.176 213.915,77.176 213.285,77.076 212.900 C 76.975 212.515,76.893 212.830,76.893 213.600 M76.514 217.400 C 76.517 218.500,76.595 218.903,76.687 218.295 C 76.779 217.686,76.777 216.786,76.682 216.295 C 76.587 215.803,76.511 216.300,76.514 217.400 M321.505 225.200 C 321.043 226.770,321.120 228.640,321.626 228.134 C 321.860 227.900,321.995 226.919,321.926 225.954 C 321.819 224.471,321.755 224.354,321.505 225.200 M75.701 234.200 C 75.705 235.080,75.787 235.393,75.883 234.895 C 75.979 234.398,75.975 233.678,75.875 233.295 C 75.775 232.913,75.696 233.320,75.701 234.200 M321.600 233.800 C 321.600 234.130,321.780 234.400,322.000 234.400 C 322.220 234.400,322.400 234.130,322.400 233.800 C 322.400 233.470,322.220 233.200,322.000 233.200 C 321.780 233.200,321.600 233.470,321.600 233.800 M322.157 237.429 C 322.011 238.011,322.095 238.655,322.349 238.909 C 322.684 239.244,322.800 238.978,322.800 237.880 C 322.800 236.156,322.525 235.964,322.157 237.429 M323.301 247.000 C 323.305 247.880,323.387 248.193,323.483 247.695 C 323.579 247.198,323.575 246.478,323.475 246.095 C 323.375 245.713,323.296 246.120,323.301 247.000 M74.909 249.200 C 74.909 250.190,74.987 250.595,75.082 250.100 C 75.178 249.605,75.178 248.795,75.082 248.300 C 74.987 247.805,74.909 248.210,74.909 249.200 M105.600 255.371 C 105.050 255.676,104.209 256.456,103.731 257.105 C 103.252 257.754,100.822 260.006,98.331 262.110 C 87.483 271.268,87.367 274.500,97.883 274.572 C 102.659 274.605,103.615 274.149,102.750 272.250 C 102.037 270.686,103.078 269.634,104.635 270.343 C 105.569 270.769,105.672 270.999,105.476 272.211 C 105.206 273.873,105.864 274.683,107.713 274.964 C 110.782 275.430,118.298 275.583,119.599 275.205 C 120.603 274.914,122.295 274.962,125.599 275.375 C 129.585 275.873,138.713 276.355,155.865 276.970 C 158.321 277.059,161.091 276.960,162.022 276.751 C 163.119 276.504,165.978 276.525,170.157 276.809 C 173.701 277.050,177.770 277.301,179.200 277.368 C 183.337 277.559,190.359 278.327,190.872 278.644 C 191.129 278.804,194.905 278.990,199.262 279.058 C 203.619 279.126,208.319 279.363,209.706 279.585 C 211.092 279.806,215.821 279.967,220.213 279.943 C 225.198 279.915,229.134 280.086,230.686 280.398 C 232.053 280.673,233.608 280.815,234.142 280.713 C 234.675 280.611,242.556 280.779,251.656 281.086 C 260.755 281.393,272.790 281.726,278.400 281.827 C 284.010 281.927,290.290 282.191,292.355 282.413 C 297.128 282.925,316.698 283.413,318.124 283.055 C 319.363 282.744,319.603 281.442,318.500 281.013 C 318.115 280.864,316.180 280.644,314.200 280.524 C 307.451 280.117,306.291 276.800,312.897 276.800 C 317.846 276.800,317.888 275.724,313.143 270.527 C 311.372 268.587,309.023 265.780,307.922 264.290 C 305.025 260.366,304.838 260.303,295.604 260.152 C 291.312 260.082,286.630 259.926,285.200 259.807 C 283.770 259.687,277.740 259.495,271.800 259.379 C 265.860 259.264,259.967 258.989,258.705 258.768 C 257.443 258.547,253.483 258.393,249.905 258.426 C 246.327 258.458,235.570 258.275,226.000 258.018 C 216.430 257.761,207.070 257.594,205.200 257.648 C 203.330 257.702,196.040 257.600,189.000 257.423 C 181.960 257.246,171.610 257.041,166.000 256.968 C 160.390 256.896,153.010 256.651,149.600 256.425 C 146.190 256.199,139.170 255.921,134.000 255.806 C 128.830 255.692,124.060 255.509,123.400 255.401 C 120.075 254.854,106.575 254.832,105.600 255.371 M67.375 257.700 L 66.200 259.000 67.500 257.825 C 68.712 256.730,68.984 256.400,68.675 256.400 C 68.606 256.400,68.021 256.985,67.375 257.700 M328.158 259.791 C 328.262 260.506,330.054 262.480,330.339 262.195 C 330.450 262.084,331.004 262.395,331.570 262.888 C 332.137 263.380,331.616 262.752,330.414 261.491 C 327.966 258.926,328.039 258.981,328.158 259.791 M333.858 265.693 C 333.980 265.891,334.184 265.950,334.310 265.823 C 334.437 265.696,335.004 265.999,335.570 266.496 L 336.600 267.400 335.693 266.367 C 334.860 265.418,333.344 264.862,333.858 265.693 M56.175 268.100 L 55.000 269.400 56.300 268.225 C 57.512 267.130,57.784 266.800,57.475 266.800 C 57.406 266.800,56.821 267.385,56.175 268.100 M337.359 268.500 C 337.201 268.775,337.222 268.863,337.406 268.696 C 337.590 268.529,338.204 268.799,338.770 269.296 L 339.800 270.200 338.830 269.100 C 337.712 267.831,337.738 267.842,337.359 268.500 M49.381 274.500 L 47.800 276.200 49.500 274.619 C 50.435 273.749,51.200 272.984,51.200 272.919 C 51.200 272.616,50.852 272.919,49.381 274.500 M290.759 276.162 C 293.665 278.796,291.090 280.071,283.930 279.545 C 275.876 278.953,274.230 278.170,276.427 275.973 C 277.621 274.779,289.405 274.934,290.759 276.162 M347.200 277.400 C 347.648 277.877,348.284 278.267,348.614 278.267 C 349.082 278.267,349.034 278.075,348.400 277.400 C 347.952 276.923,347.316 276.533,346.986 276.533 C 346.518 276.533,346.566 276.725,347.200 277.400 M349.817 279.172 C 349.691 279.377,349.770 279.658,349.993 279.796 C 350.217 279.934,350.400 279.925,350.400 279.775 C 350.400 279.625,350.715 279.746,351.100 280.044 C 351.670 280.485,351.658 280.420,351.038 279.693 C 350.173 278.679,350.132 278.662,349.817 279.172 M39.792 283.700 L 35.800 287.800 39.900 283.808 C 43.708 280.099,44.182 279.600,43.892 279.600 C 43.833 279.600,41.988 281.445,39.792 283.700 M353.263 282.676 C 353.511 282.975,353.809 283.125,353.925 283.009 C 354.040 282.893,354.510 283.112,354.968 283.496 C 355.675 284.090,355.664 284.040,354.893 283.164 C 353.947 282.089,352.389 281.623,353.263 282.676 M28.414 295.174 C 27.205 297.434,28.355 303.178,30.607 306.128 C 33.865 310.395,38.338 311.773,51.000 312.414 C 54.960 312.614,61.800 312.966,66.200 313.196 C 73.641 313.584,78.556 313.817,100.000 314.801 C 104.510 315.008,112.160 315.362,117.000 315.588 C 132.575 316.314,144.722 316.809,156.800 317.209 C 170.615 317.667,184.517 318.229,196.000 318.794 C 200.510 319.016,207.890 319.376,212.400 319.593 C 216.910 319.809,224.200 320.168,228.600 320.390 C 248.828 321.408,253.694 321.631,263.800 322.006 C 269.740 322.227,282.970 322.587,293.200 322.807 C 303.430 323.026,318.550 323.378,326.800 323.587 C 363.969 324.532,363.993 324.532,367.200 323.847 C 370.119 323.223,374.182 321.500,375.800 320.199 C 376.580 319.572,376.578 319.567,375.692 319.996 C 375.192 320.239,374.579 320.311,374.330 320.157 C 374.031 319.972,373.988 320.057,374.204 320.406 C 374.442 320.791,374.349 320.866,373.866 320.681 C 373.454 320.523,373.200 320.625,373.200 320.948 C 373.200 321.694,371.316 322.513,371.058 321.879 C 370.918 321.536,370.854 321.548,370.832 321.924 C 370.814 322.214,370.595 322.320,370.338 322.162 C 370.034 321.974,369.986 322.053,370.198 322.397 C 370.446 322.798,370.254 322.855,369.360 322.646 C 368.626 322.475,368.397 322.507,368.737 322.734 C 369.136 323.001,369.007 323.144,368.233 323.292 C 367.420 323.447,367.286 323.378,367.619 322.977 C 367.942 322.588,367.870 322.494,367.322 322.585 C 366.925 322.652,366.645 322.907,366.700 323.153 C 366.755 323.399,366.418 323.600,365.951 323.600 C 365.274 323.600,365.195 323.488,365.561 323.047 C 365.917 322.618,365.875 322.438,365.377 322.247 C 364.420 321.879,364.118 321.959,364.800 322.400 C 365.260 322.697,365.114 322.789,364.176 322.794 C 363.504 322.797,362.604 322.536,362.176 322.213 C 361.694 321.848,360.465 321.621,358.933 321.613 C 357.449 321.605,356.406 321.418,356.314 321.143 C 356.202 320.806,355.917 320.817,355.233 321.183 C 354.722 321.456,354.416 321.497,354.554 321.274 C 354.692 321.051,354.669 320.792,354.502 320.700 C 354.336 320.607,354.407 320.579,354.661 320.638 C 354.914 320.697,355.242 320.625,355.389 320.478 C 355.536 320.331,355.869 320.190,356.128 320.166 C 360.529 319.754,354.651 319.326,345.119 319.365 C 338.350 319.392,336.325 319.520,335.919 319.945 C 335.486 320.399,335.546 320.446,336.276 320.226 C 336.919 320.032,337.267 320.179,337.590 320.781 C 338.110 321.752,337.627 321.847,335.653 321.158 C 334.914 320.901,333.930 320.849,333.293 321.033 C 332.234 321.339,332.249 321.357,333.800 321.618 C 335.335 321.876,335.308 321.889,333.150 321.943 C 329.809 322.028,328.284 321.659,329.001 320.942 C 330.698 319.245,328.839 318.515,321.562 318.018 C 310.582 317.269,309.421 317.182,308.000 317.003 C 306.276 316.786,300.358 316.520,285.800 316.005 C 279.640 315.787,272.620 315.511,270.200 315.393 C 262.209 315.000,237.202 314.415,225.000 314.334 C 218.400 314.291,209.490 314.104,205.200 313.919 C 200.910 313.734,193.710 313.518,189.199 313.440 C 184.689 313.362,180.009 313.106,178.799 312.871 C 176.432 312.411,172.543 312.178,159.400 311.709 C 151.814 311.438,148.197 311.414,139.400 311.576 C 137.860 311.605,135.880 311.487,135.000 311.314 C 132.579 310.839,123.582 310.981,123.262 311.500 C 123.114 311.740,122.482 312.065,121.858 312.221 C 121.030 312.429,120.869 312.598,121.262 312.847 C 121.558 313.034,121.620 313.203,121.400 313.222 C 121.180 313.241,121.360 313.411,121.800 313.600 C 122.424 313.868,122.235 313.950,120.943 313.972 C 119.354 313.999,118.505 313.332,118.753 312.251 C 118.797 312.059,118.567 312.004,118.242 312.128 C 117.917 312.253,117.583 312.149,117.499 311.897 C 117.385 311.555,117.275 311.556,117.061 311.901 C 116.891 312.176,117.224 312.605,117.888 312.965 C 118.636 313.371,118.779 313.573,118.324 313.584 C 117.952 313.593,117.534 313.417,117.396 313.193 C 117.258 312.970,116.988 312.884,116.797 313.002 C 116.606 313.120,116.528 312.784,116.624 312.256 C 116.909 310.683,116.019 310.356,111.331 310.313 C 106.396 310.268,105.610 310.343,104.870 310.929 C 104.490 311.229,104.247 311.199,104.014 310.823 C 103.836 310.534,103.488 310.422,103.242 310.574 C 102.996 310.726,102.694 310.588,102.570 310.267 C 102.307 309.582,98.019 309.027,88.000 308.383 C 84.370 308.150,77.620 307.699,73.000 307.381 C 68.380 307.064,61.180 306.619,57.000 306.392 C 42.926 305.629,40.621 305.173,35.800 302.199 C 33.234 300.617,32.836 300.491,31.040 300.695 C 29.622 300.856,29.159 300.791,29.364 300.459 C 29.531 300.189,29.391 300.000,29.024 300.000 C 28.282 300.000,28.128 296.455,28.814 295.174 C 29.042 294.748,29.138 294.400,29.028 294.400 C 28.918 294.400,28.642 294.748,28.414 295.174 M378.200 304.000 C 379.950 305.760,381.471 307.200,381.581 307.200 C 381.691 307.200,380.350 305.760,378.600 304.000 C 376.850 302.240,375.329 300.800,375.219 300.800 C 375.109 300.800,376.450 302.240,378.200 304.000 M70.000 312.400 C 70.955 312.706,70.943 312.722,69.724 312.760 C 69.022 312.782,68.336 312.620,68.200 312.400 C 67.916 311.940,68.564 311.940,70.000 312.400 M88.400 313.241 C 88.766 313.445,87.861 313.580,86.076 313.588 C 84.376 313.595,83.249 313.445,83.382 313.229 C 83.509 313.024,83.204 312.776,82.706 312.677 C 82.208 312.578,83.150 312.589,84.800 312.702 C 86.450 312.815,88.070 313.057,88.400 313.241 M105.175 314.020 C 105.859 314.228,105.068 314.341,102.800 314.359 C 100.658 314.377,99.609 314.255,99.965 314.030 C 100.403 313.753,100.314 313.627,99.565 313.470 C 99.034 313.358,99.849 313.366,101.375 313.488 C 102.901 313.610,104.611 313.849,105.175 314.020 M119.549 314.440 C 123.308 314.543,122.683 315.121,118.800 315.132 C 116.114 315.140,114.888 315.020,115.400 314.800 L 116.200 314.456 115.400 314.397 C 114.955 314.363,114.823 314.247,115.102 314.134 C 115.379 314.023,115.498 313.758,115.366 313.545 C 115.235 313.333,115.796 313.438,116.613 313.779 C 117.429 314.121,118.751 314.418,119.549 314.440 M137.800 315.380 L 140.600 315.910 137.276 315.955 C 135.322 315.982,134.047 315.847,134.182 315.629 C 134.309 315.424,134.004 315.179,133.506 315.083 C 132.808 314.949,132.875 314.902,133.800 314.879 C 134.460 314.863,136.260 315.088,137.800 315.380 M164.342 316.430 C 165.844 316.909,159.889 316.584,157.600 316.061 C 156.097 315.718,156.418 315.686,159.542 315.871 C 161.600 315.992,163.760 316.244,164.342 316.430 M181.400 316.982 L 184.600 317.504 181.980 317.552 C 180.539 317.578,179.189 317.437,178.980 317.239 C 178.771 317.040,178.240 316.791,177.800 316.685 C 176.205 316.301,178.274 316.472,181.400 316.982 M200.400 318.004 C 201.732 318.304,201.700 318.322,199.746 318.360 C 198.616 318.382,197.086 318.128,196.346 317.795 L 195.000 317.189 197.000 317.439 C 198.100 317.576,199.630 317.830,200.400 318.004 M215.000 318.576 C 217.273 319.089,217.315 319.120,215.800 319.153 C 214.920 319.172,213.390 318.933,212.400 318.621 C 210.015 317.869,211.736 317.840,215.000 318.576 M232.400 319.600 C 233.375 319.912,233.370 319.921,232.200 319.932 C 231.540 319.938,230.640 319.789,230.200 319.600 C 229.106 319.130,230.933 319.130,232.400 319.600 M249.000 320.400 C 249.504 320.617,249.578 320.744,249.200 320.744 C 248.870 320.744,248.240 320.589,247.800 320.400 C 247.296 320.183,247.222 320.056,247.600 320.056 C 247.930 320.056,248.560 320.211,249.000 320.400 M340.000 320.553 C 340.000 320.908,338.382 321.094,338.177 320.762 C 338.054 320.563,338.413 320.400,338.976 320.400 C 339.539 320.400,340.000 320.469,340.000 320.553 M296.705 321.475 C 296.322 321.575,295.602 321.579,295.105 321.483 C 294.607 321.387,294.920 321.305,295.800 321.301 C 296.680 321.296,297.087 321.375,296.705 321.475 M303.567 322.253 C 303.970 322.609,299.338 322.346,298.800 321.982 C 298.382 321.700,298.990 321.657,300.800 321.841 C 302.230 321.987,303.475 322.172,303.567 322.253 M342.600 322.000 C 342.463 322.221,340.977 322.368,339.276 322.329 L 336.200 322.259 339.000 322.000 C 340.540 321.858,342.036 321.709,342.324 321.671 C 342.612 321.632,342.736 321.780,342.600 322.000 M333.800 322.797 C 335.854 323.055,335.490 323.106,331.276 323.149 C 328.322 323.180,326.445 323.051,326.583 322.827 C 326.710 322.622,326.316 322.371,325.707 322.269 C 324.061 321.994,331.017 322.448,333.800 322.797 M356.000 322.400 C 355.670 322.613,354.860 322.767,354.200 322.741 C 353.014 322.695,353.016 322.691,354.400 322.400 C 356.445 321.970,356.666 321.970,356.000 322.400 " stroke="none" fill="#150d25" fill-rule="evenodd"></path><path id="path4" d="M224.074 98.699 C 227.745 98.765,233.865 98.765,237.674 98.699 C 241.483 98.634,238.480 98.580,231.000 98.580 C 223.520 98.579,220.403 98.633,224.074 98.699 M250.400 98.956 C 250.400 99.277,253.256 99.432,253.448 99.123 C 253.558 98.945,252.917 98.800,252.024 98.800 C 251.131 98.800,250.400 98.870,250.400 98.956 M165.100 99.482 C 165.595 99.578,166.405 99.578,166.900 99.482 C 167.395 99.387,166.990 99.309,166.000 99.309 C 165.010 99.309,164.605 99.387,165.100 99.482 M175.400 99.605 C 177.820 99.766,182.680 99.959,186.200 100.034 L 192.600 100.170 186.000 100.400 C 180.169 100.603,179.901 100.640,183.700 100.715 C 187.218 100.785,188.000 100.909,188.000 101.400 C 188.000 101.730,187.820 102.000,187.600 102.000 C 186.624 102.000,187.350 102.741,188.987 103.416 C 190.858 104.188,191.676 105.177,190.487 105.232 C 190.066 105.251,189.995 105.342,190.302 105.466 C 190.579 105.577,190.703 105.833,190.579 106.034 C 190.455 106.235,190.539 106.400,190.766 106.400 C 191.045 106.400,191.053 106.735,190.790 107.426 C 190.576 107.990,190.400 108.866,190.400 109.372 C 190.400 109.878,190.065 110.721,189.655 111.246 C 189.245 111.771,188.775 112.650,188.610 113.200 C 188.445 113.750,187.902 114.650,187.404 115.200 C 186.241 116.483,185.600 117.740,185.600 118.738 C 185.600 119.172,184.880 120.439,184.000 121.552 C 183.089 122.705,182.400 124.012,182.400 124.588 C 182.400 125.145,182.220 125.600,182.000 125.600 C 181.780 125.600,181.600 125.855,181.600 126.167 C 181.600 126.478,181.462 126.793,181.294 126.867 C 180.581 127.177,178.400 130.630,178.400 131.448 C 178.400 131.938,177.770 133.164,177.000 134.173 C 176.230 135.182,175.600 136.294,175.600 136.646 C 175.600 136.997,175.150 137.819,174.600 138.473 C 174.050 139.127,173.600 140.084,173.600 140.600 C 173.600 141.116,173.137 142.089,172.571 142.762 C 171.894 143.566,171.626 144.250,171.787 144.759 C 171.922 145.184,171.845 145.648,171.616 145.790 C 171.387 145.931,171.200 146.487,171.200 147.024 C 171.200 147.561,171.037 148.000,170.837 148.000 C 170.638 148.000,170.569 148.361,170.685 148.802 C 170.800 149.243,170.728 149.828,170.525 150.102 C 170.321 150.376,170.209 151.140,170.276 151.800 C 170.343 152.460,170.394 153.501,170.391 154.113 C 170.388 154.725,170.607 155.625,170.879 156.113 C 171.150 156.601,171.394 157.090,171.420 157.200 C 171.568 157.804,172.211 159.124,172.787 160.000 C 173.148 160.550,173.791 161.810,174.215 162.800 C 175.697 166.254,178.564 171.032,181.770 175.391 C 183.547 177.805,186.111 181.675,187.468 183.991 C 192.428 192.449,193.430 192.986,195.168 188.118 C 196.708 183.803,200.013 176.735,203.164 171.014 C 205.107 167.486,207.247 163.506,207.919 162.169 C 209.200 159.622,219.175 144.561,221.410 141.800 C 222.122 140.920,223.391 139.120,224.229 137.800 C 225.993 135.021,231.597 127.701,234.669 124.165 C 237.659 120.722,245.600 109.581,245.600 108.828 C 245.600 108.324,245.213 108.227,243.641 108.336 C 241.705 108.470,239.349 107.529,239.799 106.802 C 239.905 106.631,239.633 106.397,239.196 106.283 C 238.758 106.169,238.400 105.788,238.400 105.437 C 238.400 105.087,238.130 104.800,237.800 104.800 C 237.470 104.800,237.200 104.642,237.200 104.449 C 237.200 104.070,235.676 103.413,233.900 103.025 C 232.804 102.786,232.350 102.006,233.300 101.994 C 233.633 101.990,233.600 101.858,233.200 101.600 C 232.699 101.276,232.732 101.202,233.400 101.150 C 234.500 101.064,230.690 100.501,225.400 99.968 C 222.844 99.710,210.524 99.480,196.000 99.418 C 182.250 99.359,172.980 99.443,175.400 99.605 M231.566 99.637 C 232.179 99.882,232.909 99.884,233.566 99.643 C 234.458 99.315,234.326 99.262,232.600 99.257 C 230.918 99.252,230.753 99.312,231.566 99.637 M236.707 99.490 C 237.426 99.579,238.506 99.577,239.107 99.486 C 239.708 99.395,239.120 99.322,237.800 99.324 C 236.480 99.326,235.988 99.401,236.707 99.490 M78.800 185.800 C 78.800 186.350,78.869 186.800,78.953 186.800 C 79.038 186.800,79.193 186.350,79.298 185.800 C 79.403 185.250,79.334 184.800,79.145 184.800 C 78.955 184.800,78.800 185.250,78.800 185.800 M155.200 187.440 C 155.200 187.675,155.320 187.986,155.466 188.133 C 155.789 188.456,156.073 190.135,156.105 191.911 C 156.127 193.177,154.788 195.055,154.248 194.514 C 154.117 194.384,153.736 194.935,153.400 195.739 C 152.988 196.725,152.531 197.200,151.995 197.200 C 151.495 197.200,151.200 197.468,151.200 197.924 C 151.200 198.321,150.570 199.693,149.800 200.972 C 149.030 202.251,148.396 203.590,148.391 203.948 C 148.386 204.307,148.030 205.050,147.600 205.600 C 147.170 206.150,146.814 206.918,146.809 207.306 C 146.797 208.229,144.431 212.413,143.779 212.663 C 143.250 212.866,142.633 214.232,142.225 216.100 C 142.093 216.705,141.808 217.200,141.592 217.200 C 141.377 217.200,141.200 217.449,141.200 217.754 C 141.200 218.059,140.931 218.824,140.602 219.454 C 140.274 220.084,139.999 220.870,139.992 221.200 C 139.985 221.530,139.272 222.790,138.407 224.000 C 135.844 227.584,134.800 229.619,134.800 231.027 C 134.800 231.756,134.640 232.452,134.444 232.573 C 134.249 232.694,133.969 233.269,133.823 233.851 C 133.677 234.433,133.131 235.470,132.610 236.155 C 132.089 236.840,131.539 237.895,131.388 238.500 C 131.237 239.105,130.970 239.600,130.796 239.600 C 130.621 239.600,130.352 240.691,130.197 242.024 C 130.008 243.651,129.657 244.688,129.128 245.181 C 128.620 245.654,128.493 246.010,128.770 246.181 C 129.313 246.517,129.333 248.270,128.799 248.601 C 128.578 248.737,128.507 249.285,128.640 249.819 C 129.070 251.531,126.547 251.920,113.351 252.177 C 104.158 252.357,104.939 252.044,97.853 258.367 C 91.515 264.022,88.532 267.285,88.168 268.959 C 88.019 269.641,87.174 271.067,86.290 272.126 C 84.308 274.500,84.606 274.989,88.402 275.581 C 89.831 275.804,91.976 276.258,93.169 276.589 C 94.554 276.973,99.691 277.412,107.369 277.804 C 120.426 278.469,130.255 279.372,132.282 280.092 C 134.084 280.732,134.311 281.656,134.577 289.400 C 134.705 293.140,134.913 297.820,135.039 299.800 C 135.358 304.836,135.240 304.960,129.955 305.140 C 125.247 305.300,100.827 304.578,91.600 304.005 C 88.190 303.794,79.550 303.338,72.400 302.993 C 65.250 302.648,55.622 302.102,51.006 301.781 L 42.611 301.198 38.121 299.099 C 32.907 296.661,32.996 296.837,35.639 294.160 C 36.766 293.020,37.497 291.983,37.273 291.845 C 37.050 291.707,36.143 292.333,35.258 293.236 C 33.764 294.760,32.792 295.014,32.806 293.876 C 32.810 293.590,32.967 293.639,33.200 294.000 C 33.528 294.508,33.589 294.488,33.594 293.871 C 33.601 293.045,34.507 292.000,35.217 292.000 C 35.512 292.000,35.627 291.563,35.521 290.841 C 35.405 290.053,35.504 289.742,35.830 289.867 C 36.094 289.968,36.645 289.364,37.055 288.525 C 37.465 287.686,37.980 287.034,38.200 287.076 C 38.714 287.173,40.430 285.572,40.204 285.207 C 40.022 284.912,43.114 281.731,43.419 281.900 C 43.519 281.955,43.591 281.898,43.579 281.774 C 43.519 281.109,46.870 279.298,47.730 279.531 C 47.912 279.580,47.945 279.256,47.803 278.810 C 47.655 278.342,47.726 278.000,47.973 278.000 C 48.208 278.000,48.400 278.191,48.400 278.424 C 48.400 278.657,48.592 278.728,48.827 278.583 C 49.062 278.438,49.165 278.085,49.055 277.798 C 48.945 277.512,49.123 276.945,49.450 276.539 C 50.004 275.849,50.015 275.860,49.608 276.700 C 49.253 277.432,49.287 277.600,49.786 277.600 C 50.124 277.600,50.400 277.802,50.400 278.049 C 50.400 278.330,50.595 278.367,50.919 278.149 C 51.204 277.957,51.114 278.099,50.719 278.464 C 50.323 278.829,50.000 279.247,50.000 279.393 C 50.000 279.538,49.721 279.936,49.381 280.276 C 49.040 280.617,48.857 280.990,48.973 281.107 C 49.090 281.223,50.539 279.996,52.193 278.380 C 54.109 276.510,55.063 275.303,54.819 275.059 C 54.575 274.815,53.994 275.150,53.218 275.981 C 52.548 276.698,51.986 277.131,51.969 276.942 C 51.953 276.754,51.879 276.286,51.805 275.902 C 51.731 275.517,51.835 275.102,52.036 274.978 C 52.236 274.854,52.400 274.975,52.400 275.246 C 52.400 275.528,52.801 275.363,53.333 274.863 C 54.199 274.050,54.684 272.577,53.933 273.041 C 53.750 273.155,53.600 273.057,53.600 272.824 C 53.600 272.591,53.954 272.400,54.387 272.400 C 54.923 272.400,55.101 272.208,54.945 271.800 C 54.799 271.420,54.950 271.200,55.357 271.200 C 55.711 271.200,56.000 270.930,56.000 270.600 C 56.000 270.270,56.179 270.000,56.397 270.000 C 56.615 270.000,57.280 269.454,57.875 268.787 C 58.469 268.120,59.200 267.668,59.498 267.782 C 59.797 267.897,59.932 267.813,59.797 267.595 C 59.563 267.217,60.155 267.015,61.000 267.186 C 61.220 267.230,61.268 267.134,61.106 266.973 C 60.945 266.811,61.125 266.423,61.506 266.110 C 61.888 265.797,61.975 265.655,61.700 265.794 C 60.999 266.149,61.075 265.402,61.800 264.800 C 62.290 264.393,62.400 264.417,62.400 264.927 C 62.400 265.271,62.578 265.663,62.795 265.797 C 63.022 265.937,63.089 265.777,62.953 265.421 C 62.821 265.077,62.924 264.800,63.184 264.800 C 63.463 264.800,63.556 264.492,63.413 264.042 C 63.236 263.482,63.359 263.299,63.886 263.342 C 64.279 263.374,64.555 263.175,64.500 262.900 C 64.445 262.625,64.681 262.400,65.024 262.400 C 65.393 262.400,65.531 262.588,65.362 262.862 C 65.181 263.155,65.253 263.215,65.558 263.026 C 65.910 262.809,65.921 262.587,65.600 262.200 C 65.120 261.622,65.711 260.974,66.355 261.372 C 66.550 261.493,66.955 261.289,67.255 260.919 C 67.630 260.456,67.644 260.340,67.300 260.547 C 66.562 260.990,66.690 260.517,67.664 259.200 C 68.139 258.557,68.706 258.142,68.925 258.278 C 69.144 258.413,69.207 258.335,69.064 258.104 C 68.796 257.670,69.675 257.147,70.900 257.011 C 71.864 256.904,71.777 257.155,70.700 257.588 C 70.091 257.832,70.010 257.957,70.451 257.975 C 71.316 258.008,72.145 256.967,71.770 256.318 C 71.606 256.033,71.619 255.933,71.799 256.097 C 71.979 256.260,72.349 256.208,72.621 255.982 C 72.893 255.757,73.270 255.600,73.458 255.633 C 74.307 255.786,74.800 255.553,74.800 255.000 C 74.800 254.670,74.575 254.382,74.300 254.360 C 74.025 254.338,74.250 254.195,74.800 254.041 C 75.350 253.887,75.805 253.500,75.811 253.181 C 75.816 252.861,75.950 252.394,76.108 252.142 C 76.267 251.889,76.122 251.579,75.786 251.450 C 75.389 251.298,75.018 251.562,74.724 252.208 C 74.475 252.754,74.141 253.200,73.981 253.200 C 73.637 253.200,70.831 255.636,67.208 259.080 C 62.833 263.239,59.058 266.694,57.896 267.601 C 57.289 268.076,56.897 268.634,57.026 268.842 C 57.154 269.050,57.101 269.170,56.907 269.110 C 56.713 269.049,55.596 269.900,54.426 271.000 C 53.255 272.100,50.845 274.350,49.071 276.000 C 45.518 279.305,37.220 287.273,32.307 292.099 C 30.571 293.803,29.255 295.366,29.382 295.571 C 29.509 295.777,29.441 296.051,29.230 296.181 C 28.520 296.620,29.577 298.702,30.611 298.900 C 31.139 299.001,31.634 298.897,31.710 298.669 C 31.787 298.440,33.458 299.169,35.424 300.287 C 41.560 303.777,42.003 303.850,64.000 304.999 C 70.490 305.338,82.460 305.976,90.600 306.417 C 98.740 306.858,109.968 307.395,115.550 307.611 C 125.455 307.993,130.361 308.169,165.000 309.393 C 174.240 309.719,184.500 310.083,187.800 310.202 C 191.100 310.320,203.160 310.682,214.600 311.006 C 236.360 311.622,250.890 312.175,262.000 312.811 C 269.125 313.218,284.579 313.735,309.600 314.403 C 318.290 314.635,330.260 314.998,336.200 315.209 C 372.137 316.485,373.200 316.538,373.200 317.059 C 373.200 317.642,374.593 318.504,375.833 318.687 C 376.777 318.826,379.903 316.723,380.296 315.684 C 380.439 315.308,380.807 314.746,381.115 314.435 C 381.476 314.069,381.590 313.432,381.437 312.635 C 381.267 311.746,381.312 311.568,381.594 312.000 C 381.889 312.449,381.989 312.216,381.994 311.076 C 381.998 310.025,381.857 309.641,381.538 309.838 C 381.251 310.016,381.185 309.948,381.364 309.658 C 381.786 308.976,381.241 307.600,380.549 307.600 C 380.221 307.600,380.046 307.449,380.161 307.263 C 380.275 307.078,379.719 306.313,378.924 305.563 C 378.130 304.814,377.625 304.470,377.802 304.800 C 377.979 305.130,377.556 304.871,376.862 304.225 C 375.417 302.880,375.150 302.296,376.500 303.435 C 377.330 304.135,377.325 304.110,376.442 303.109 C 375.625 302.185,374.800 301.952,374.800 302.647 C 374.800 302.757,375.008 302.719,375.262 302.562 C 375.565 302.374,375.614 302.453,375.405 302.793 C 375.065 303.342,373.627 301.865,373.609 300.949 C 373.595 300.226,372.517 299.486,372.208 299.987 C 372.063 300.221,371.774 300.308,371.566 300.179 C 371.357 300.050,371.287 299.782,371.410 299.584 C 371.532 299.386,371.175 299.109,370.616 298.968 C 370.057 298.828,369.600 298.463,369.600 298.157 C 369.600 297.468,369.943 297.451,370.788 298.100 C 371.146 298.375,371.012 298.192,370.491 297.694 C 369.334 296.590,368.925 296.774,369.034 298.348 C 369.097 299.263,368.976 299.489,368.518 299.313 C 368.189 299.187,367.769 299.326,367.586 299.623 C 367.322 300.050,367.058 300.065,366.326 299.697 C 365.719 299.392,361.605 299.166,354.400 299.041 C 348.350 298.936,340.700 298.674,337.400 298.458 C 325.654 297.690,313.332 296.796,308.800 296.384 C 306.270 296.154,302.220 295.789,299.800 295.573 C 291.654 294.846,279.873 293.570,268.487 292.180 C 255.645 290.613,254.471 290.550,254.144 291.402 C 253.866 292.125,255.994 296.705,258.943 301.732 C 262.976 308.609,262.805 308.766,252.058 308.052 C 236.120 306.992,223.200 305.413,219.860 304.117 C 217.359 303.147,217.287 303.025,217.024 299.279 C 216.889 297.366,216.514 294.768,216.189 293.506 C 215.865 292.244,215.600 289.797,215.600 288.068 C 215.600 283.228,214.659 282.764,202.405 281.567 C 197.892 281.126,193.272 280.504,192.138 280.183 C 191.005 279.862,188.995 279.600,187.674 279.600 C 186.352 279.600,183.907 279.339,182.241 279.020 C 177.557 278.124,163.155 277.467,153.400 277.704 C 146.636 277.869,142.379 277.737,135.000 277.134 C 129.720 276.703,121.235 276.204,116.145 276.026 C 111.055 275.849,106.696 275.583,106.459 275.436 C 106.221 275.290,103.186 275.121,99.714 275.063 C 94.105 274.967,93.211 274.857,91.706 274.073 C 87.529 271.896,88.770 269.825,101.177 258.262 C 106.200 253.581,105.333 253.878,113.299 254.112 C 117.095 254.224,127.490 254.526,136.400 254.782 C 145.310 255.039,153.140 255.390,153.800 255.561 C 155.977 256.128,193.407 255.344,196.863 254.659 C 200.998 253.840,201.342 253.560,202.541 250.037 C 203.771 246.422,203.780 246.434,199.543 245.926 C 190.363 244.825,187.875 242.726,181.383 230.600 C 180.322 228.620,178.788 225.920,177.973 224.600 C 177.158 223.280,175.191 219.860,173.602 217.000 C 172.012 214.140,169.415 209.820,167.829 207.400 C 166.244 204.980,163.176 200.030,161.012 196.400 C 156.534 188.888,155.200 186.832,155.200 187.440 M78.000 203.200 C 78.000 204.080,78.071 204.800,78.158 204.800 C 78.245 204.800,78.385 204.080,78.469 203.200 C 78.552 202.320,78.481 201.600,78.311 201.600 C 78.140 201.600,78.000 202.320,78.000 203.200 M77.693 212.800 C 77.693 213.570,77.775 213.885,77.876 213.500 C 77.976 213.115,77.976 212.485,77.876 212.100 C 77.775 211.715,77.693 212.030,77.693 212.800 M77.467 215.867 C 77.320 216.013,77.200 216.943,77.200 217.933 C 77.200 220.236,77.737 219.761,77.817 217.388 C 77.882 215.482,77.876 215.457,77.467 215.867 M76.825 229.580 C 76.808 230.527,76.929 230.831,77.212 230.548 C 77.485 230.275,77.494 229.809,77.238 229.168 C 76.874 228.258,76.849 228.283,76.825 229.580 M76.400 234.224 C 76.400 235.074,76.562 235.547,76.801 235.399 C 77.022 235.263,77.086 234.685,76.943 234.116 C 76.745 233.327,76.807 233.157,77.203 233.402 C 77.547 233.614,77.626 233.566,77.438 233.262 C 76.885 232.367,76.400 232.816,76.400 234.224 M76.027 245.180 C 76.006 246.232,76.111 246.449,76.467 246.093 C 76.812 245.748,76.819 245.388,76.494 244.713 C 76.081 243.856,76.052 243.884,76.027 245.180 M75.600 249.167 C 75.600 249.845,75.763 250.400,75.963 250.400 C 76.162 250.400,76.224 250.012,76.100 249.537 C 75.933 248.902,76.010 248.759,76.389 248.993 C 76.727 249.202,76.843 249.129,76.727 248.781 C 76.359 247.677,75.600 247.937,75.600 249.167 M75.623 255.491 C 74.806 255.813,73.414 257.266,73.074 258.152 C 72.774 258.933,74.222 258.239,75.422 257.027 C 75.793 256.652,76.518 255.148,76.287 255.232 C 76.239 255.249,75.940 255.366,75.623 255.491 M64.477 265.988 C 63.291 267.071,62.934 267.600,63.386 267.600 C 63.718 267.600,66.086 265.153,65.918 264.985 C 65.828 264.895,65.180 265.346,64.477 265.988 M152.908 289.700 C 153.202 290.543,152.757 291.198,151.857 291.246 C 151.328 291.275,151.234 291.356,151.611 291.459 C 152.984 291.831,155.218 301.127,154.030 301.523 C 153.794 301.602,153.600 302.080,153.600 302.584 C 153.600 304.435,149.638 305.687,148.539 304.184 C 147.447 302.690,148.394 294.082,149.922 291.614 C 151.361 289.291,152.508 288.555,152.908 289.700 M377.200 312.786 C 377.200 313.428,375.625 314.062,374.732 313.778 C 374.096 313.576,374.023 313.433,374.428 313.183 C 374.722 313.001,375.093 312.934,375.253 313.033 C 375.414 313.132,375.658 313.030,375.796 312.807 C 376.115 312.290,377.200 312.274,377.200 312.786 " stroke="none" fill="#a527b8" fill-rule="evenodd"></path></g></svg>